<svg width="400" height="400" viewBox="0 0 400 400" fill="none" xmlns="http://www.w3.org/2000/svg">
<path d="M11.2667 135.12C11.16 135.12 11.0267 135.106 10.88 135.106C7.90668 135.106 5.21334 136.32 3.26667 138.28C1.38667 139.96 0.146667 142.333 0 145V145.026V284.24C0.32 289.84 4.94667 294.253 10.5867 294.253C12.24 294.253 13.8 293.88 15.1867 293.2L15.12 293.226L124.707 240.693L174.173 216.773C177.453 215.106 179.653 211.76 179.653 207.893C179.653 203.64 176.987 200.013 173.227 198.6L173.16 198.573L14.7067 135.826C13.6933 135.386 12.5067 135.12 11.2667 135.093V135.12ZM389.893 134.466C388.56 134.48 387.293 134.746 386.133 135.24L386.2 135.213L219.387 199.813C215.653 201.373 213.067 204.986 213.053 209.213V357.44C213.107 362.92 217.56 367.346 223.053 367.346C224.373 367.346 225.64 367.093 226.8 366.613L226.733 366.64L393.573 301.826C397.307 300.413 399.907 296.866 399.907 292.72C399.907 292.693 399.907 292.666 399.907 292.64V144.413C399.867 138.92 395.413 134.48 389.907 134.48L389.893 134.466ZM199.813 33C192.12 33 184.787 34.5733 178.12 37.4133L178.48 37.28L29.64 98.8265C25.9867 100.373 23.4667 103.933 23.4667 108.08C23.4667 112.306 26.08 115.92 29.7733 117.4L29.84 117.426L179.493 176.706C185.547 179.226 192.573 180.693 199.933 180.693C207.293 180.693 214.333 179.226 220.733 176.573L220.373 176.706L370.027 117.426C373.76 115.893 376.333 112.293 376.333 108.093C376.333 103.96 373.84 100.413 370.293 98.8665L370.227 98.8398L220.987 37.2933C214.747 34.5867 207.493 33.0133 199.867 33.0133C199.84 33.0133 199.813 33.0133 199.787 33.0133L199.813 33Z" fill="black"/>
</svg>
