<svg width="400" height="400" viewBox="0 0 400 400" fill="none" xmlns="http://www.w3.org/2000/svg">
<path d="M198.4 20H375.2V248H198.4V20Z" fill="white"/>
<path fill-rule="evenodd" clip-rule="evenodd" d="M12.5523 101.733C4.51484 109.769 0 120.672 0 132.038V357.143C0 380.811 19.1877 400 42.8572 400H267.963C279.328 400 290.23 395.484 298.267 387.448L387.448 298.267C395.485 290.231 400 279.328 400 267.962V42.8572C400 19.1895 380.812 0 357.143 0H132.037C120.672 0 109.77 4.51662 101.733 12.5523L12.5523 101.733ZM200 225.202C200 230.357 204.178 234.536 209.333 234.536H304.894C326.108 234.536 342.5 229.238 354.072 218.645C365.643 208.053 371.428 194.618 371.428 178.338C371.428 165.977 367.668 155.19 360.147 145.972C352.625 136.555 343.08 130.671 331.508 128.317C341.344 125.572 349.636 120.372 356.386 112.723C363.328 104.876 366.8 94.4791 366.8 81.5325C366.8 66.0365 361.208 53.3867 350.022 43.5791C339.029 33.5728 323.023 28.5714 302.002 28.5714H209.333C204.178 28.5714 200 32.7497 200 37.9046V225.202Z" fill="black"/>
</svg>
