<svg width="400" height="400" viewBox="0 0 400 400" fill="none" xmlns="http://www.w3.org/2000/svg">
<path d="M245.502 101.578H347.08L245.502 0V101.578Z" fill="black"/>
<path d="M245.502 101.578V0H75.4275C62.9989 0 53 9.99891 53 22.4275V377.529C53 389.957 62.9989 399.956 75.4275 399.956H324.653C337.081 399.956 347.08 389.957 347.08 377.529V101.578H245.502Z" fill="black"/>
<path d="M109.069 156.898V294.36H291.011V156.898H109.069ZM188.78 271.933H131.496V236.796H188.78V271.933ZM188.78 214.462H131.496V179.326H188.78V214.462ZM268.584 271.933H211.3V236.796H268.584V271.933ZM268.584 214.462H211.3V179.326H268.584V214.462Z" fill="white"/>
</svg>
