<svg width="400" height="400" viewBox="0 0 400 400" fill="none" xmlns="http://www.w3.org/2000/svg">
<path d="M220.999 314.676L167.041 247.367V314.676H126.859V103.619H167.041V223.694L220.425 156.669H272.662L202.63 235.958L273.236 314.676H220.999Z" fill="black"/>
<path d="M73.1642 350.495C58.9291 350.495 47.4155 346.543 38.6232 338.637C29.8309 330.941 25.4348 319.291 25.4348 303.689C25.4348 296.616 25.9581 290.271 27.0048 284.654C28.2609 278.83 29.4122 272.901 30.4589 266.868C31.715 260.835 32.343 253.762 32.343 245.649C32.343 238.16 30.1449 231.191 25.7488 224.743C21.3527 218.085 12.7697 213.405 0 210.701V189.482C12.7697 186.778 21.3527 182.201 25.7488 175.752C30.1449 169.304 32.343 162.23 32.343 154.533C32.343 146.628 31.715 139.66 30.4589 133.627C29.4122 127.594 28.2609 121.769 27.0048 116.153C25.9581 110.328 25.4348 103.879 25.4348 96.806C25.4348 80.996 29.8309 69.2424 38.6232 61.5455C47.4155 53.8485 58.9291 50 73.1642 50H89.8068V72.4669H77.8744C69.0821 72.4669 62.3832 74.5471 57.7778 78.7077C53.3816 82.6602 51.1836 89.4211 51.1836 98.9903C51.1836 105.023 51.7069 110.848 52.7536 116.465C53.8004 121.873 54.847 127.698 55.8937 133.939C57.1497 139.972 57.7778 147.149 57.7778 155.47C57.7778 166.495 54.9517 175.96 49.2995 183.865C43.8566 191.771 35.0644 197.075 22.9227 199.779V200.403C35.0644 203.316 43.8566 208.724 49.2995 216.63C54.9517 224.535 57.7778 233.999 57.7778 245.025C57.7778 253.138 57.1497 260.315 55.8937 266.556C54.847 272.589 53.8004 278.413 52.7536 284.03C51.7069 289.439 51.1836 295.264 51.1836 301.504C51.1836 310.866 53.3816 317.626 57.7778 321.787C62.3832 325.948 69.0821 328.028 77.8744 328.028H89.8068V350.495H73.1642Z" fill="black"/>
<path d="M326.787 350.495C341.023 350.495 352.536 346.543 361.328 338.637C370.121 330.941 374.517 319.291 374.517 303.689C374.517 296.616 373.994 290.271 372.947 284.654C371.691 278.83 370.54 272.901 369.493 266.868C368.237 260.835 367.609 253.762 367.609 245.649C367.609 238.16 369.807 231.191 374.203 224.743C378.599 218.085 387.182 213.405 399.952 210.701V189.482C387.182 186.778 378.599 182.201 374.203 175.752C369.807 169.304 367.609 162.23 367.609 154.533C367.609 146.628 368.237 139.66 369.493 133.627C370.54 127.594 371.691 121.769 372.947 116.153C373.994 110.328 374.517 103.879 374.517 96.806C374.517 80.996 370.121 69.2424 361.328 61.5455C352.536 53.8485 341.023 50 326.787 50H310.145V72.4669H322.077C330.87 72.4669 337.569 74.5471 342.174 78.7077C346.57 82.6602 348.768 89.4211 348.768 98.9903C348.768 105.023 348.245 110.848 347.198 116.465C346.151 121.873 345.105 127.698 344.058 133.939C342.802 139.972 342.174 147.149 342.174 155.47C342.174 166.495 345 175.96 350.652 183.865C356.095 191.771 364.888 197.075 377.029 199.779V200.403C364.888 203.316 356.095 208.724 350.652 216.63C345 224.535 342.174 233.999 342.174 245.025C342.174 253.138 342.802 260.315 344.058 266.556C345.105 272.589 346.151 278.413 347.198 284.03C348.245 289.439 348.768 295.264 348.768 301.504C348.768 310.866 346.57 317.626 342.174 321.787C337.569 325.948 330.87 328.028 322.077 328.028H310.145V350.495H326.787Z" fill="black"/>
</svg>
