<svg width="400" height="400" viewBox="0 0 400 400" fill="none" xmlns="http://www.w3.org/2000/svg">
<path d="M226.683 27H172.85C77.4167 27.1167 0.0833333 104.3 0 199.533C0.116667 294.75 77.4333 371.9 172.85 372.017H226.883C322.317 371.933 399.667 294.767 399.783 199.533C399.683 104.2 322.217 26.9833 226.683 27ZM21.4 199.533C21.4 116.117 89.15 48.5167 172.733 48.5167C181.183 48.5167 189.633 49.2 197.967 50.6C270.9 62.6333 324.3 125.683 324.033 199.45C323.95 246.8 289.7 287.2 242.917 295.117C273.533 272.817 291.617 237.267 291.583 199.45C291.683 145.333 255 98.05 202.467 84.6C192.75 82.0833 182.767 80.8333 172.733 80.8333C107.2 81.0333 54.1833 134.067 54.1167 199.45C53.95 258.7 84.35 313.85 134.567 345.45C68.0833 328.033 21.6667 268.133 21.5167 199.533H21.4ZM199.683 106.35C241.3 118.3 269.95 156.317 269.917 199.533C269.933 242.733 241.283 280.717 199.683 292.667C158.083 280.717 129.45 242.733 129.45 199.533C129.417 156.317 158.067 118.3 199.683 106.35ZM226.683 350.467H226.067C217.85 350.417 209.633 349.733 201.517 348.383C130.517 336.633 77.7667 276.383 75.6333 204.6V199.533C75.6833 152.167 109.95 111.75 156.733 103.85C126.117 126.15 108.017 161.7 108.017 199.533C107.95 253.633 144.633 300.9 197.15 314.35C206.85 316.867 216.85 318.133 226.883 318.1C292.483 318.033 345.65 265 345.75 199.533C345.933 140.283 315.533 85.1167 265.283 53.5333C331.767 70.9833 378.117 130.933 378.133 199.533C378.117 239.583 362.15 278 333.733 306.3C305.333 334.617 266.817 350.5 226.683 350.467Z" fill="black"/>
</svg>
