<svg width="400" height="400" viewBox="0 0 400 400" fill="none" xmlns="http://www.w3.org/2000/svg">
<path d="M33.5141 279.605C26.7828 279.605 20.3205 276.438 16.3924 270.722C11.3426 263.382 11.1938 253.852 15.7945 246.513L147.949 35.4303C156.885 21.1545 172.029 12.4707 188.374 12.4707H304.659C311.376 12.4707 317.844 15.6125 321.805 21.3148C326.904 28.6661 327.03 38.2136 322.424 45.5684L267.863 132.69L378.818 132.701C384.875 132.701 390.712 135.266 394.689 139.949L395.944 141.588C400.988 148.922 401.131 158.443 396.538 165.798L325.286 279.605L264.463 376.773C255.479 391.128 240.252 399.859 223.819 399.859H107.602C97.9288 399.859 89.3926 393.204 87.134 383.635C85.7678 377.882 86.7021 371.782 89.8359 366.768L144.392 279.593L33.5141 279.605ZM293.811 279.593H175.85L117.277 373.175L223.819 373.187C230.264 373.187 236.436 369.984 240.65 364.376L241.854 362.622L293.811 279.593ZM294.968 39.1364L188.374 39.1431C181.373 39.1431 174.694 42.9725 170.556 49.5832L43.2387 252.93L161.037 252.922L236.308 132.701L236.379 132.69L294.968 39.1364ZM369.097 159.369L251.166 159.361L192.598 252.896H310.521L369.097 159.369Z" fill="black"/>
</svg>
