<svg width="96" height="21" viewBox="0 0 96 21" fill="none" xmlns="http://www.w3.org/2000/svg">
<path d="M92.2917 16.8132V4.30305H95.1895V16.8132H92.2917Z" fill="#7C828C"/>
<path d="M84.7454 7.50399V12.9778C84.7454 13.3187 84.7896 13.6155 84.878 13.868C84.9664 14.1142 85.1148 14.3068 85.3231 14.4457C85.5315 14.5783 85.8156 14.6446 86.1755 14.6446C86.4785 14.6446 86.7405 14.5909 86.9615 14.4836C87.1888 14.3762 87.3782 14.231 87.5297 14.0479C87.6875 13.8648 87.8043 13.6628 87.8801 13.4418L88.3252 14.7961H87.8327C87.7317 15.2128 87.5644 15.5916 87.3308 15.9325C87.1035 16.2734 86.7879 16.5418 86.3838 16.7375C85.986 16.9332 85.4746 17.0311 84.8496 17.0311C84.1614 17.0311 83.5932 16.8985 83.145 16.6333C82.703 16.3618 82.3747 15.9609 82.1601 15.4306C81.9517 14.9003 81.8475 14.2373 81.8475 13.4418V7.50399H84.7454ZM90.7306 7.50399V16.8132H87.8517L87.9464 14.4836L87.8327 14.2184V7.50399H90.7306Z" fill="#7C828C"/>
<path d="M78.4319 4C78.9433 4 79.4169 4.04104 79.8525 4.12311C80.2944 4.19888 80.6796 4.29358 81.0079 4.40722L81.2541 6.5475C81.0015 6.47805 80.7332 6.41807 80.4491 6.36756C80.165 6.31705 79.8556 6.2918 79.521 6.2918C79.1233 6.2918 78.8108 6.33599 78.5835 6.42438C78.3625 6.50646 78.2078 6.62326 78.1194 6.77478C78.0374 6.91999 77.9963 7.09677 77.9963 7.30512V7.32406C77.9963 7.47558 78.0184 7.61132 78.0626 7.73128C78.1131 7.85123 78.1699 7.96488 78.2331 8.07221L76.358 8.1385V7.84492C76.0297 7.71865 75.7487 7.51978 75.5151 7.2483C75.2878 6.97681 75.1742 6.62326 75.1742 6.18763V6.14028C75.1742 5.46473 75.4362 4.94071 75.9602 4.56822C76.4905 4.18941 77.3145 4 78.4319 4ZM75.4867 16.8132V8.73512H78.3751V16.8132H75.4867ZM74.2366 10.203V7.92068L76.7368 7.93962L77.8353 7.92068H81.2446L81.0079 10.203H74.2366Z" fill="#7C828C"/>
<path d="M71.4672 17.0216C70.6401 17.0216 69.9804 16.8985 69.4879 16.6522C69.0018 16.3997 68.6514 16.0241 68.4367 15.5253C68.2221 15.0265 68.1148 14.411 68.1148 13.6786V8.47943H70.9937V13.2145C70.9937 13.6691 71.0947 14.0037 71.2968 14.2184C71.5051 14.4267 71.8902 14.5309 72.4521 14.5309C72.7615 14.5309 73.0677 14.4962 73.3707 14.4267C73.6738 14.3573 73.9484 14.2689 74.1946 14.1616L73.9484 16.5575C73.6264 16.6964 73.2539 16.8069 72.8309 16.889C72.4142 16.9774 71.9597 17.0216 71.4672 17.0216ZM66.8647 9.81473V7.54187H74.1094L73.8537 9.81473H66.8647ZM68.1526 7.75022L68.1432 5.34478L71.0126 5.07014L70.9085 7.75022H68.1526Z" fill="#7C828C"/>
<path d="M62.6463 17.05C60.9543 17.05 59.7042 16.6743 58.8961 15.923C58.088 15.1654 57.6839 14.0637 57.6839 12.6179V11.652C57.6839 10.2251 58.0627 9.13287 58.8203 8.37526C59.5779 7.61132 60.6797 7.22936 62.1254 7.22936C63.0977 7.22936 63.9058 7.39666 64.5498 7.73128C65.2001 8.05958 65.6863 8.52994 66.0082 9.14234C66.3365 9.75475 66.5007 10.4903 66.5007 11.3489V11.6614C66.5007 11.9013 66.4881 12.1476 66.4628 12.4001C66.4439 12.6463 66.4155 12.8768 66.3776 13.0914H63.7638C63.7891 12.7253 63.8048 12.3812 63.8111 12.0592C63.8175 11.7309 63.8206 11.4341 63.8206 11.169C63.8206 10.7839 63.7606 10.4619 63.6407 10.203C63.5207 9.93785 63.3345 9.73581 63.0819 9.59692C62.8357 9.45802 62.5169 9.38857 62.1254 9.38857C61.5446 9.38857 61.1184 9.54641 60.847 9.86208C60.5818 10.1714 60.4492 10.6134 60.4492 11.1879V12.0402L60.4681 12.3528V13.0157C60.4681 13.2556 60.506 13.4829 60.5818 13.6975C60.6639 13.9122 60.8028 14.1016 60.9985 14.2657C61.2005 14.4236 61.4752 14.5499 61.8224 14.6446C62.176 14.7329 62.6242 14.7771 63.1672 14.7771C63.7417 14.7771 64.2941 14.7235 64.8245 14.6161C65.3548 14.5025 65.863 14.351 66.3492 14.1616L66.1124 16.3397C65.6831 16.5607 65.1749 16.7343 64.5877 16.8606C64.0006 16.9869 63.3534 17.05 62.6463 17.05ZM59.2181 13.0914V11.3016H65.7904V13.0914H59.2181Z" fill="#7C828C"/>
<path d="M54.6585 16.8132L51.9121 12.7979H51.1545V11.0932H51.9121L54.5827 7.50399H57.9068L54.3649 12.1255V11.5762L58.0394 16.8132H54.6585ZM48.7301 16.8132V4.30305H51.6091V16.8132H48.7301Z" fill="#7C828C"/>
<path d="M44.4404 11.5857L43.6449 9.8242H44.3267C44.4783 9.05396 44.7719 8.45102 45.2075 8.01539C45.6494 7.57344 46.2713 7.35247 47.0731 7.35247C47.212 7.35247 47.3383 7.36194 47.4519 7.38088C47.5719 7.39982 47.6855 7.42192 47.7929 7.44717L47.9349 10.3735C47.8023 10.3356 47.6477 10.3103 47.4709 10.2977C47.2941 10.2788 47.1142 10.2693 46.9311 10.2693C46.3123 10.2693 45.7915 10.3861 45.3685 10.6197C44.9455 10.847 44.6361 11.169 44.4404 11.5857ZM41.5993 16.8132V7.50399H44.3267L44.2036 10.4777L44.4972 10.5155V16.8132H41.5993Z" fill="#7C828C"/>
<path d="M37.3216 16.8132L37.4068 14.4836L37.3406 14.3415V11.4341L37.3216 11.0553C37.3216 10.5376 37.1701 10.1557 36.867 9.90943C36.564 9.66321 36.0558 9.54009 35.3423 9.54009C34.7173 9.54009 34.1238 9.61901 33.5619 9.77685C33 9.93469 32.4697 10.1146 31.9709 10.3167L32.2172 8.07221C32.5139 7.93331 32.8453 7.80388 33.2115 7.68393C33.584 7.55766 33.9944 7.45664 34.4427 7.38088C34.8909 7.30512 35.3707 7.26723 35.8821 7.26723C36.6966 7.26723 37.3784 7.36194 37.9277 7.55134C38.477 7.74075 38.9158 8.00907 39.2441 8.35631C39.5724 8.70356 39.8091 9.12025 39.9543 9.60639C40.0996 10.0862 40.1722 10.6165 40.1722 11.1974V16.8132H37.3216ZM34.3574 17.0311C33.4293 17.0311 32.7254 16.7975 32.2456 16.3303C31.7657 15.8631 31.5259 15.197 31.5259 14.332V14.0763C31.5259 13.1609 31.8068 12.4853 32.3687 12.0497C32.9369 11.6078 33.8366 11.3079 35.0677 11.15L37.5678 10.8186L37.7383 12.5611L35.5223 12.8831C35.074 12.9399 34.7583 13.0441 34.5752 13.1956C34.3922 13.3471 34.3006 13.5713 34.3006 13.868V13.9343C34.3006 14.2184 34.3922 14.4457 34.5752 14.6161C34.7583 14.7803 35.0519 14.8624 35.456 14.8624C35.8095 14.8624 36.1126 14.8087 36.3651 14.7014C36.624 14.594 36.8355 14.4552 36.9996 14.2847C37.1638 14.1079 37.2869 13.9122 37.369 13.6975L37.7762 14.8718H37.3027C37.2017 15.2759 37.0438 15.6421 36.8292 15.9704C36.6208 16.2987 36.3178 16.5575 35.92 16.747C35.5223 16.9364 35.0014 17.0311 34.3574 17.0311Z" fill="#7C828C"/>
<path d="M17.3495 16.8132L17.7283 4.71027H21.8573L23.8556 11.9266H23.9787L25.9769 4.71027H30.1059L30.4847 16.8132H27.6152L27.53 12.8452L27.4448 8.01538H27.3027L25.2287 15.3927H22.596L20.522 8.01538H20.3705L20.2947 12.8547L20.219 16.8132H17.3495Z" fill="#7C828C"/>
<path fill-rule="evenodd" clip-rule="evenodd" d="M11.738 8.43792C11.8908 8.387 12.0172 8.27749 12.0893 8.13342C12.1614 7.98934 12.1733 7.82251 12.1224 7.66966C12.0715 7.51681 11.9619 7.39044 11.8179 7.31834C11.6738 7.24624 11.507 7.23434 11.3541 7.28523L9.53228 7.89256C9.37943 7.94344 9.25303 8.05298 9.18096 8.19706C9.10886 8.34113 9.09696 8.50793 9.14785 8.66078C9.19873 8.81363 9.30827 8.94003 9.45235 9.0121C9.59642 9.0842 9.76322 9.0961 9.91607 9.04521L11.738 8.43792ZM9.90209 12.5421C10.0166 12.6527 10.17 12.7139 10.3293 12.7125C10.4885 12.7111 10.6408 12.6473 10.7534 12.5347C10.866 12.4221 10.9299 12.2698 10.9313 12.1105C10.9326 11.9513 10.8714 11.7979 10.7608 11.6833L9.54623 10.4687C9.4317 10.3581 9.27828 10.2969 9.11906 10.2983C8.95983 10.2997 8.80752 10.3635 8.69492 10.4761C8.58232 10.5887 8.51846 10.741 8.51707 10.9003C8.51568 11.0595 8.57689 11.2129 8.68753 11.3274L9.90209 12.5421ZM9.08591 5.01757C9.13689 4.86472 9.12506 4.69787 9.05302 4.55374C8.98098 4.40961 8.85465 4.3 8.7018 4.24902C8.54895 4.19805 8.38208 4.20988 8.23798 4.28191C8.09384 4.35395 7.98424 4.48029 7.93326 4.63314L7.32596 6.45506C7.27508 6.60791 7.28698 6.77472 7.35908 6.91879C7.43114 7.06287 7.55754 7.17241 7.71039 7.22329C7.86324 7.27418 8.03004 7.26228 8.17412 7.19018C8.31819 7.1181 8.4277 6.99173 8.47862 6.83887L9.08591 5.01757ZM7.86523 9.28389C7.90469 9.17536 7.91239 9.05781 7.88742 8.94508C7.86242 8.83232 7.80582 8.72903 7.72425 8.6473C7.64265 8.56557 7.53945 8.50882 7.42676 8.48369C7.31403 8.45853 7.1965 8.46604 7.08791 8.50531L0.407669 10.9345C0.292105 10.9766 0.192027 11.0527 0.120678 11.1529C0.0493286 11.253 0.0100699 11.3725 0.00809513 11.4955C0.00612036 11.6184 0.0415233 11.7391 0.109619 11.8415C0.177715 11.9439 0.275295 12.0233 0.389452 12.069L2.57024 12.9417L0.1854 15.3272C0.127397 15.3832 0.0811325 15.4502 0.0493046 15.5243C0.0174771 15.5984 0.000723638 15.6781 2.29297e-05 15.7587C-0.000677778 15.8394 0.0146877 15.9193 0.0452229 15.994C0.0757582 16.0686 0.120853 16.1364 0.177873 16.1934C0.234894 16.2505 0.3027 16.2955 0.377333 16.3261C0.451968 16.3566 0.531935 16.372 0.612571 16.3713C0.693207 16.3706 0.772896 16.3538 0.846988 16.322C0.92108 16.2902 0.988094 16.2439 1.04411 16.1859L3.42956 13.8004L4.30164 15.9819C4.34725 16.0962 4.42658 16.194 4.52905 16.2622C4.63152 16.3305 4.75233 16.366 4.87544 16.364C4.99855 16.362 5.11813 16.3227 5.21836 16.2512C5.31862 16.1797 5.39473 16.0794 5.43668 15.9636L7.86586 9.28326L7.86523 9.28389ZM5.04376 7.68364C5.09976 7.74163 5.16678 7.78791 5.24087 7.81973C5.31496 7.85155 5.39466 7.86831 5.47529 7.86901C5.55594 7.8697 5.6359 7.85436 5.71053 7.8238C5.78515 7.79328 5.85296 7.7482 5.91 7.69116C5.96701 7.63414 6.01212 7.56634 6.04265 7.49171C6.07317 7.41706 6.08855 7.33709 6.08785 7.25644C6.08713 7.17582 6.0704 7.09613 6.03858 7.02204C6.00673 6.94794 5.96048 6.88093 5.90246 6.82491L4.68787 5.6103C4.63187 5.55229 4.56485 5.50603 4.49076 5.4742C4.41667 5.44237 4.33696 5.42562 4.25634 5.42492C4.17568 5.42422 4.09572 5.43958 4.0211 5.47012C3.94647 5.50065 3.87867 5.54575 3.82162 5.60277C3.76461 5.65979 3.71953 5.7276 3.68898 5.80223C3.65845 5.87687 3.64308 5.95684 3.64377 6.03748C3.6445 6.11811 3.66123 6.1978 3.69308 6.2719C3.7249 6.34599 3.77115 6.413 3.82917 6.46903L5.04376 7.68364Z" fill="#7C828C"/>
</svg>
