<svg width="400" height="400" viewBox="0 0 400 400" fill="none" xmlns="http://www.w3.org/2000/svg">
<path d="M145.318 8.27612C82.731 12.9072 29.5247 17.1663 27.0231 17.665C20.0092 18.9158 13.6286 23.6736 10.6283 29.9354L8 35.4453L8.25333 166.763L8.6254 298.08L12.6311 306.218C14.8873 310.723 30.158 331.757 46.8063 353.408C79.7306 396.093 82.1056 398.476 94.6214 399.727C98.2551 400.099 125.543 398.848 155.087 397.099C184.758 395.223 232.32 392.341 260.866 390.718C382.787 383.316 376.525 383.942 383.531 377.933C392.294 370.674 391.669 382.564 392.041 222.961C392.294 87.6382 392.168 78.756 390.165 74.6236C387.79 69.9925 383.531 66.7389 327.95 27.6793C290.774 1.64217 288.146 0.264712 271.49 0.0113866C264.611 -0.234022 207.779 3.51836 145.318 8.27612ZM286.017 25.4231C291.273 27.798 329.707 54.5872 335.336 59.7249C336.84 61.229 337.339 62.4798 336.587 63.2319C334.837 64.736 96.9884 78.8826 90.1091 77.8773C86.9821 77.3785 82.351 75.5023 79.7227 73.7449C68.8297 66.3589 41.7952 44.2008 41.7952 42.578C41.7952 38.3189 40.9164 38.3189 146.949 30.6875C167.231 29.31 200.527 26.8085 220.809 25.1777C264.737 21.6707 277.886 21.7974 286.017 25.4231ZM361.626 93.9001C363.376 95.6496 364.88 99.0299 365.379 102.284C365.751 105.292 366.004 161.372 365.751 226.714C365.379 338.874 365.252 345.888 363.122 349.141C361.872 351.144 359.37 353.274 357.486 353.899C352.237 356.028 103.005 370.175 97.8751 368.671C95.5002 368.046 92.2386 366.043 90.4891 364.293L87.4808 361.04L87.1087 240.116C86.8554 155.244 87.1087 117.689 88.1141 114.309C88.8662 111.807 90.7424 108.799 92.3732 107.801C94.6293 106.297 109.401 105.046 160.225 102.046C195.904 100.043 251.105 96.6629 282.779 94.7867C358.119 90.1477 357.874 90.1477 361.626 93.9001Z" fill="black"/>
<path d="M294.654 135.335C281.132 136.214 269.115 137.465 267.738 138.217C263.605 140.346 261.104 143.853 260.605 147.859C260.233 151.991 261.484 152.49 274.997 154.121L280.879 154.873V208.325C280.879 240.117 280.38 261.151 279.755 260.526C279.129 259.773 261.357 232.739 240.196 200.44C219.044 168.022 201.517 141.352 201.264 141.106C201.01 140.853 187.244 141.605 170.722 142.737C150.44 144.115 139.302 145.365 137.046 146.616C133.412 148.492 129.406 155.126 129.406 159.512C129.406 162.14 134.164 163.518 144.178 163.518H149.435V317.239L140.925 319.867C134.291 321.87 132.034 323.121 130.91 325.622C128.908 329.881 129.034 333.76 131.037 333.76C131.789 333.76 145.936 332.882 162.204 331.884C194.376 330.008 198.002 329.129 201.382 322.495C202.388 320.492 203.258 318.363 203.258 317.737C203.258 317.239 198.881 315.735 193.616 314.484C188.233 313.233 182.85 311.982 181.726 311.729C179.596 311.104 179.47 307.224 179.47 253.393V195.682L217.524 255.396C257.454 317.983 262.465 325.124 268.601 328.25C276.24 332.256 295.643 329.501 305.404 323.121L308.412 321.244L308.666 235.874L309.038 150.377L315.672 149.126C323.556 147.622 327.19 143.996 327.19 137.734C327.19 133.728 326.937 133.475 323.184 133.602C320.944 133.705 308.048 134.457 294.654 135.335Z" fill="black"/>
</svg>
