<svg width="400" height="400" viewBox="0 0 400 400" fill="none" xmlns="http://www.w3.org/2000/svg">
<path d="M388.681 190.166C393.015 199.835 395.765 210.171 396.891 220.714C397.974 231.258 397.432 241.927 395.182 252.304C392.973 262.681 389.139 272.642 383.805 281.81C380.304 287.937 376.178 293.688 371.427 298.981C366.718 304.232 361.467 308.983 355.757 313.15C350.006 317.318 343.88 320.819 337.378 323.694C330.919 326.528 324.167 328.695 317.249 330.112C313.998 340.198 309.164 349.741 302.913 358.326C296.703 366.912 289.16 374.455 280.575 380.664C271.99 386.916 262.488 391.75 252.402 395.001C242.317 398.293 231.773 399.918 221.146 399.918C214.103 399.96 207.018 399.21 200.1 397.793C193.223 396.334 186.472 394.126 180.012 391.25C173.553 388.374 167.426 384.79 161.717 380.623C156.049 376.455 150.798 371.662 146.13 366.37C135.711 368.62 125.042 369.162 114.499 368.078C103.955 366.953 93.6192 364.203 83.9088 359.868C74.2402 355.576 65.28 349.741 57.4033 342.615C49.5267 335.488 42.8169 327.153 37.5242 317.985C33.9818 311.858 31.0645 305.399 28.8557 298.689C26.6469 291.979 25.1883 285.061 24.4381 278.018C23.688 271.017 23.7296 263.932 24.4798 256.889C25.2299 249.887 26.7719 242.969 28.9807 236.259C21.8959 228.383 16.0614 219.422 11.7271 209.754C7.43458 200.043 4.64233 189.75 3.55877 179.206C2.43353 168.662 3.01699 157.993 5.22578 147.616C7.43458 137.239 11.2687 127.278 16.6032 118.11C20.1039 111.983 24.2297 106.191 28.9391 100.939C33.6484 95.6883 38.9411 90.9373 44.6507 86.7698C50.3602 82.6023 56.5281 79.0599 62.9878 76.2259C69.4892 73.3503 76.2406 71.2249 83.1587 69.8079C86.4094 59.6808 91.2437 50.1789 97.4533 41.5937C103.705 33.0086 111.248 25.4654 119.833 19.2141C128.418 13.0044 137.92 8.17011 148.006 4.87775C158.091 1.62707 168.635 -0.0399389 179.262 0.00173647C186.305 -0.0399389 193.39 0.668542 200.308 2.12718C207.226 3.58582 213.978 5.75294 220.437 8.62853C226.897 11.5458 233.023 15.0882 238.733 19.2557C244.442 23.465 249.693 28.2159 254.361 33.5087C264.738 31.2999 275.407 30.7581 285.951 31.8417C296.495 32.9253 306.789 35.7175 316.499 40.0101C326.168 44.3443 335.128 50.1372 343.004 57.2637C350.881 64.3485 357.591 72.6419 362.884 81.8521C366.426 87.9367 369.343 94.3964 371.552 101.148C373.761 107.858 375.261 114.776 375.97 121.819C376.72 128.862 376.72 135.947 375.928 142.99C375.178 150.033 373.636 156.951 371.427 163.661C378.554 171.537 384.346 180.456 388.681 190.166ZM249.818 368.078C258.904 364.328 267.155 358.785 274.115 351.825C281.075 344.865 286.618 336.614 290.369 327.487C294.119 318.401 296.078 308.649 296.078 298.814V205.878C296.05 205.795 296.022 205.697 295.995 205.586C295.967 205.503 295.925 205.42 295.87 205.336C295.814 205.253 295.745 205.183 295.661 205.128C295.578 205.044 295.495 204.989 295.411 204.961L261.779 185.54V297.814C261.779 298.939 261.613 300.106 261.321 301.189C261.029 302.315 260.612 303.357 260.029 304.357C259.445 305.357 258.779 306.274 257.945 307.066C257.135 307.873 256.225 308.574 255.236 309.149L175.595 355.117C174.928 355.534 173.803 356.118 173.219 356.451C176.511 359.243 180.096 361.702 183.846 363.869C187.639 366.036 191.556 367.87 195.64 369.37C199.725 370.829 203.934 371.954 208.185 372.704C212.477 373.455 216.812 373.83 221.146 373.83C230.981 373.83 240.733 371.871 249.818 368.078ZM60.1539 304.982C65.1133 313.525 71.6563 320.944 79.4496 326.945C87.2845 332.946 96.1614 337.322 105.663 339.864C115.165 342.406 125.084 343.073 134.836 341.781C144.588 340.489 153.965 337.322 162.509 332.404L243.025 285.936L243.234 285.728C243.289 285.672 243.331 285.589 243.359 285.478C243.414 285.395 243.456 285.311 243.484 285.228V246.053L146.297 302.273C145.297 302.856 144.255 303.273 143.171 303.607C142.046 303.898 140.921 304.023 139.754 304.023C138.629 304.023 137.503 303.898 136.378 303.607C135.295 303.273 134.211 302.856 133.211 302.273L53.5692 256.263C52.8607 255.847 51.8188 255.222 51.2354 254.846C50.4852 259.139 50.1101 263.473 50.1101 267.808C50.1101 272.142 50.5269 276.476 51.277 280.769C52.0272 285.019 53.1941 289.229 54.6527 293.313C56.1531 297.397 57.9868 301.315 60.1539 305.065V304.982ZM39.2329 131.196C34.3152 139.739 31.1478 149.158 29.8559 158.91C28.564 168.662 29.2308 178.539 31.773 188.083C34.3152 197.585 38.6911 206.461 44.6923 214.296C50.6936 222.09 58.1535 228.633 66.6552 233.55L147.13 280.06C147.214 280.088 147.311 280.116 147.422 280.143H147.714C147.825 280.143 147.922 280.116 148.006 280.06C148.089 280.032 148.172 279.991 148.256 279.935L182.013 260.431L84.8257 204.336C83.8672 203.753 82.9503 203.044 82.1168 202.252C81.3092 201.442 80.6089 200.532 80.033 199.543C79.4912 198.543 79.0328 197.501 78.7411 196.376C78.4494 195.292 78.2827 194.167 78.3243 193V98.3556C74.2402 99.8559 70.281 101.69 66.5302 103.857C62.7794 106.066 59.237 108.566 55.903 111.358C52.6107 114.151 49.5267 117.234 46.7344 120.569C43.9422 123.861 41.4833 127.445 39.3162 131.196H39.2329ZM315.665 195.542C316.666 196.126 317.583 196.793 318.416 197.626C319.208 198.418 319.916 199.335 320.5 200.335C321.042 201.335 321.5 202.419 321.792 203.502C322.042 204.628 322.208 205.753 322.167 206.92V301.565C335.545 296.647 347.214 288.02 355.84 276.684C364.509 265.349 369.718 251.804 370.927 237.635C372.136 223.465 369.302 209.212 362.717 196.584C356.132 183.957 346.088 173.455 333.753 166.37L253.277 119.86C253.194 119.832 253.097 119.804 252.986 119.777H252.694C252.611 119.804 252.513 119.832 252.402 119.86C252.319 119.888 252.236 119.93 252.152 119.985L218.562 139.406L315.749 195.542H315.665ZM349.214 145.115H349.172V145.157L349.214 145.115ZM349.172 145.074C351.59 131.071 349.964 116.651 344.463 103.523C339.004 90.3956 329.877 79.1015 318.208 70.9332C306.539 62.8065 292.786 58.1388 278.574 57.5137C264.321 56.9303 250.235 60.3893 237.899 67.4741L157.424 113.942C157.341 113.998 157.271 114.067 157.216 114.151L157.049 114.401C157.021 114.484 156.994 114.581 156.966 114.692C156.938 114.776 156.924 114.873 156.924 114.984V153.825L254.111 97.6888C255.111 97.1053 256.195 96.6885 257.278 96.3551C258.404 96.0634 259.529 95.9384 260.654 95.9384C261.821 95.9384 262.946 96.0634 264.071 96.3551C265.155 96.6885 266.197 97.1053 267.197 97.6888L346.839 143.698C347.547 144.115 348.589 144.699 349.172 145.074ZM138.587 102.065C138.587 100.939 138.754 99.8142 139.045 98.689C139.337 97.6054 139.754 96.5218 140.337 95.5216C140.921 94.5631 141.588 93.6462 142.421 92.8127C143.213 92.0209 144.13 91.3124 145.13 90.7706L224.772 44.8027C225.522 44.3443 226.564 43.7609 227.147 43.4691C216.228 34.3422 202.892 28.5077 188.764 26.7156C174.636 24.8819 160.3 27.1324 147.422 33.1753C134.503 39.2182 123.584 48.8452 115.957 60.8477C108.331 72.8919 104.288 86.8115 104.288 101.064V194C104.316 194.112 104.344 194.209 104.371 194.292C104.399 194.376 104.441 194.459 104.496 194.542C104.552 194.626 104.621 194.709 104.705 194.792C104.76 194.848 104.844 194.903 104.955 194.959L138.587 214.38V102.065ZM156.841 224.882L200.141 249.887L243.442 224.882V174.913L200.183 149.908L156.882 174.913L156.841 224.882Z" fill="black"/>
</svg>
