<svg width="400" height="400" viewBox="0 0 400 400" fill="none" xmlns="http://www.w3.org/2000/svg">
<path fill-rule="evenodd" clip-rule="evenodd" d="M88.0877 364.382C179.181 426.044 303.012 402.186 364.673 311.094C426.337 220.001 402.48 96.1697 311.388 34.5075C220.295 -27.1547 96.4621 -3.29684 34.7999 87.7954C-26.8625 178.887 -3.00461 302.72 88.0877 364.382ZM114.506 366.01C197.834 408.64 303.537 368.622 350.603 276.63C397.668 184.636 368.272 75.5005 284.943 32.8692C201.618 -9.76185 95.9138 30.2546 48.8485 122.248C1.78342 214.241 31.1794 323.377 114.506 366.01Z" fill="black"/>
<path fill-rule="evenodd" clip-rule="evenodd" d="M138.252 387.765C213.47 412.246 301.956 347.573 335.892 243.311C369.826 139.05 336.359 34.6834 261.141 10.2016C185.923 -14.28 97.4383 50.394 63.5034 154.656C29.5688 258.916 63.0354 363.283 138.252 387.765ZM161.262 379.841C224.919 393.419 293.752 323.653 315.004 224.019C336.254 124.383 301.879 32.605 238.221 19.0275C174.564 5.44989 105.732 75.214 84.4803 174.85C63.2289 274.485 97.6054 366.263 161.262 379.841Z" fill="black"/>
<path fill-rule="evenodd" clip-rule="evenodd" d="M178.713 396.271C229.043 401.643 279.27 317.698 290.901 208.772C302.532 99.8455 271.161 7.18657 220.833 1.81264C170.505 -3.56135 120.277 80.3847 108.646 189.311C97.0148 298.236 128.385 390.897 178.713 396.271ZM202.265 363.116C238.687 362.541 267.057 288.807 265.628 198.428C264.201 108.048 233.516 35.2466 197.094 35.822C160.67 36.3976 132.302 110.131 133.729 200.512C135.157 290.892 165.841 363.692 202.265 363.116Z" fill="black"/>
</svg>
