<svg width="400" height="400" viewBox="0 0 400 400" fill="none" xmlns="http://www.w3.org/2000/svg">
<path d="M392.815 239.523C390.484 232.463 384.378 227.545 376.481 226.365C372.757 225.81 368.493 226.047 363.446 227.087C354.65 228.902 348.124 229.593 343.362 229.726C361.338 199.376 375.955 164.766 384.37 132.187C397.977 79.5064 390.706 55.5073 382.209 44.652C359.722 15.9192 326.915 0.483733 287.336 0.0114349C266.222 -0.246735 247.687 3.92195 238.018 6.91975C229.016 5.33125 219.336 4.44436 209.179 4.28035C190.14 3.97662 173.318 8.12707 158.944 16.6573C150.986 13.9663 138.214 10.1727 123.465 7.75197C88.7764 2.05705 60.8181 6.49453 40.3681 20.9414C15.605 38.4331 4.12561 68.8243 6.24868 111.27C6.92295 124.747 14.4615 165.75 26.3312 204.637C33.153 226.988 40.4273 245.549 47.9522 259.809C58.6237 280.03 70.0424 291.937 82.8613 296.214C90.046 298.607 103.1 300.284 116.83 288.849C118.571 290.956 120.893 293.051 123.974 294.996C127.888 297.464 132.673 299.481 137.452 300.676C154.675 304.981 170.808 303.904 184.571 297.869C184.656 300.317 184.721 302.656 184.776 304.676C184.867 307.952 184.958 311.164 185.078 314.167C185.894 334.478 187.276 350.27 191.37 361.32C191.595 361.927 191.897 362.854 192.216 363.836C194.258 370.09 197.674 380.56 206.364 388.759C215.362 397.252 226.246 399.857 236.214 399.857C241.213 399.857 245.983 399.201 250.167 398.305C265.08 395.108 282.018 390.239 294.27 372.793C305.855 356.301 311.486 331.46 312.505 292.32C312.637 291.213 312.758 290.156 312.875 289.149L313.118 287.081L315.847 287.321L316.55 287.368C331.74 288.06 350.313 284.839 361.719 279.541C370.733 275.358 399.616 260.11 392.815 239.523Z" fill="black"/>
<path d="M366.843 243.526C321.679 252.843 318.573 237.552 318.573 237.552C366.259 166.793 386.194 76.9761 368.992 54.9937C322.06 -4.96995 240.82 23.3892 239.464 24.1242L239.028 24.2032C230.105 22.3505 220.119 21.2479 208.895 21.0642C188.46 20.7301 172.958 26.422 161.195 35.3425C161.195 35.3425 16.2703 -24.3615 23.0115 110.43C24.4451 139.105 64.1121 327.404 111.424 270.529C128.717 249.731 145.426 232.147 145.426 232.147C153.724 237.659 163.659 240.472 174.074 239.462L174.884 238.776C174.632 241.357 174.747 243.883 175.207 246.873C163.018 260.491 166.601 262.881 142.236 267.897C117.581 272.978 132.064 282.024 141.521 284.39C152.985 287.255 179.506 291.316 197.426 266.23L196.713 269.092C201.487 272.918 204.84 293.972 204.278 313.06C203.717 332.146 203.341 345.251 207.103 355.486C210.868 365.722 214.617 388.752 246.649 381.89C273.412 376.154 287.282 361.291 289.212 336.497C290.58 318.872 293.68 321.478 293.874 305.719L296.36 298.259C299.226 274.367 296.816 266.658 313.304 270.243L317.313 270.596C329.447 271.147 345.332 268.643 354.655 264.31C374.728 254.995 386.634 239.439 366.84 243.526H366.843Z" fill="black"/>
<path d="M169.678 123.254C165.608 122.687 161.922 123.211 160.057 124.624C159.009 125.418 158.684 126.338 158.596 126.971C158.362 128.65 159.538 130.505 160.261 131.462C162.305 134.171 165.29 136.033 168.246 136.443C168.674 136.504 169.101 136.531 169.524 136.531C174.452 136.531 178.934 132.694 179.329 129.861C179.822 126.314 174.673 123.948 169.678 123.254ZM304.509 123.366C304.12 120.586 299.173 119.793 294.477 120.446C289.787 121.099 285.241 123.216 285.62 126.003C285.924 128.17 289.837 131.869 294.469 131.869C294.861 131.869 295.256 131.843 295.654 131.787C298.746 131.359 301.015 129.395 302.093 128.264C303.733 126.539 304.684 124.616 304.509 123.366Z" fill="white"/>
<path d="M381.872 242.468C380.15 237.26 374.607 235.585 365.398 237.487C338.054 243.13 328.262 239.221 325.047 236.853C346.301 204.476 363.785 165.337 373.217 128.822C377.685 111.524 380.153 95.46 380.355 82.3662C380.578 67.9953 378.13 57.4347 373.082 50.9835C352.729 24.9767 322.857 11.0264 286.698 10.6437C261.84 10.3643 240.837 16.7259 236.765 18.5148C228.191 16.3826 218.844 15.0736 208.667 14.9065C190.006 14.6043 173.875 19.0722 160.52 28.1795C154.719 26.02 139.727 20.8733 121.392 17.9195C89.6953 12.8169 64.507 16.6833 46.5324 29.4172C25.0845 44.6127 15.183 71.7752 17.101 110.148C17.7464 123.058 25.1028 162.774 36.7113 200.808C51.9919 250.869 68.6028 279.208 86.0794 285.038C88.125 285.72 90.4835 286.197 93.0849 286.197C99.4602 286.197 107.277 283.324 115.409 273.547C125.328 261.648 135.589 250.037 146.178 238.73C153.049 242.418 160.596 244.477 168.316 244.684C168.331 244.886 168.35 245.088 168.369 245.288C167.04 246.872 165.739 248.48 164.466 250.11C159.117 256.9 158.004 258.313 140.787 261.858C135.889 262.869 122.882 265.55 122.691 274.668C122.484 284.63 138.067 288.814 139.842 289.257C146.029 290.806 151.99 291.57 157.674 291.57C171.499 291.57 183.664 287.026 193.387 278.235C193.088 313.75 194.568 348.746 198.833 359.408C202.326 368.137 210.857 389.47 237.807 389.468C241.762 389.468 246.114 389.008 250.902 387.981C279.029 381.952 291.244 369.521 295.968 342.114C298.497 327.466 302.836 292.49 304.877 273.729C309.184 275.073 314.728 275.688 320.722 275.687C333.224 275.687 347.649 273.031 356.696 268.831C366.859 264.112 385.198 252.53 381.872 242.468ZM314.891 115.691C314.798 121.23 314.036 126.258 313.228 131.507C312.357 137.151 311.458 142.987 311.232 150.072C311.009 156.967 311.87 164.135 312.702 171.067C314.385 185.069 316.112 199.484 309.428 213.708C308.318 211.741 307.329 209.707 306.467 207.619C305.636 205.606 303.832 202.371 301.334 197.894C291.616 180.466 268.859 139.654 280.508 123.001C283.979 118.044 292.785 112.947 314.891 115.691ZM288.096 21.8589C320.494 22.5742 346.123 34.6945 364.268 57.8811C378.185 75.666 362.86 156.59 318.496 226.404C318.05 225.836 317.601 225.271 317.15 224.707L316.588 224.006C328.053 205.073 325.811 186.34 323.816 169.732C322.996 162.917 322.221 156.479 322.419 150.432C322.622 144.023 323.469 138.526 324.289 133.21C325.296 126.661 326.321 119.883 326.039 111.893C326.25 111.055 326.335 110.065 326.224 108.889C325.503 101.228 316.755 78.2978 298.927 57.544C289.174 46.1921 274.952 33.4887 255.533 24.9205C263.885 23.1892 275.307 21.5749 288.096 21.8589ZM106.803 266.391C97.8428 277.164 91.6559 275.099 89.6209 274.422C76.3631 269.999 60.9792 241.977 47.4162 197.542C35.6801 159.093 28.8219 120.43 28.2782 109.588C26.5652 75.3 34.8768 51.4041 52.9836 38.5625C82.4513 17.6659 130.899 30.1735 150.367 36.5168C150.087 36.7932 149.796 37.0514 149.519 37.3324C117.573 69.5944 118.331 124.715 118.41 128.085C118.407 129.385 118.516 131.226 118.665 133.757C119.215 143.029 120.238 160.283 117.505 179.824C114.966 197.982 120.563 215.755 132.86 228.586C134.122 229.9 135.448 231.151 136.834 232.334C131.361 238.196 119.465 251.159 106.803 266.391ZM140.94 220.842C131.03 210.5 126.528 196.116 128.589 181.373C131.475 160.731 130.41 142.754 129.838 133.095C129.757 131.743 129.686 130.559 129.645 129.625C134.312 125.487 155.939 113.899 171.362 117.433C178.399 119.045 182.688 123.837 184.471 132.081C193.698 174.759 185.692 192.547 179.259 206.842C177.933 209.787 176.68 212.57 175.611 215.45L174.782 217.676C172.683 223.304 170.73 228.537 169.52 233.506C158.983 233.476 148.734 228.975 140.94 220.841V220.842ZM142.558 278.399C139.481 277.631 136.714 276.296 135.091 275.189C136.447 274.551 138.86 273.682 143.045 272.819C163.299 268.651 166.428 265.708 173.259 257.035C174.824 255.045 176.6 252.792 179.058 250.046L179.061 250.043C182.723 245.942 184.398 246.638 187.435 247.899C189.897 248.916 192.295 252.002 193.267 255.398C193.727 257.001 194.243 260.045 192.553 262.414C178.284 282.393 157.491 282.136 142.558 278.399ZM248.558 377.038C223.779 382.347 215.006 369.704 209.225 355.252C205.493 345.921 203.659 303.845 204.96 257.379C204.977 256.761 204.889 256.164 204.719 255.603C204.567 254.493 204.335 253.396 204.026 252.319C202.092 245.558 197.376 239.903 191.719 237.558C189.472 236.627 185.347 234.919 180.39 236.187C181.447 231.831 183.28 226.912 185.268 221.586L186.102 219.346C187.04 216.821 188.219 214.204 189.464 211.434C196.196 196.479 205.416 175.994 195.41 129.716C191.662 112.382 179.145 103.917 160.171 105.884C148.796 107.061 138.389 111.65 133.198 114.282C132.082 114.847 131.062 115.394 130.108 115.925C131.557 98.4608 137.03 65.8221 157.504 45.1716C170.396 32.172 187.564 25.7512 208.482 26.0974C249.698 26.7717 276.129 47.9234 291.045 65.5503C303.899 80.7383 310.859 96.0386 313.636 104.291C292.747 102.166 278.54 106.289 271.339 116.586C255.671 138.983 279.91 182.453 291.56 203.345C293.696 207.173 295.54 210.482 296.12 211.888C299.914 221.082 304.825 227.221 308.411 231.701C309.51 233.073 310.576 234.405 311.387 235.569C305.06 237.393 293.696 241.607 294.732 262.672C293.897 273.242 287.957 322.728 284.94 340.212C280.956 363.311 272.457 371.914 248.558 377.039V377.038ZM351.983 258.681C345.514 261.683 334.688 263.935 324.403 264.42C313.044 264.951 307.261 263.147 305.9 262.037C305.262 248.91 310.148 247.539 315.319 246.087C316.131 245.859 316.924 245.636 317.689 245.368C318.165 245.756 318.686 246.14 319.257 246.517C328.387 252.543 344.671 253.193 367.662 248.447L367.914 248.397C364.813 251.296 359.507 255.186 351.983 258.681Z" fill="white"/>
</svg>
