<svg width="81" height="21" viewBox="0 0 81 21" fill="none" xmlns="http://www.w3.org/2000/svg">
<path d="M20.9081 12.9085V10.994H23.4664C24.2796 10.994 24.8895 10.8302 25.2961 10.5027C25.7027 10.1638 25.906 9.61039 25.906 8.84234C25.906 8.16466 25.714 7.65075 25.33 7.30061C24.9573 6.93917 24.3756 6.75846 23.585 6.75846H20.9081V4.87788H23.6527C24.3756 4.87788 25.025 4.96259 25.6011 5.13201C26.1884 5.30143 26.6854 5.55556 27.092 5.89441C27.5099 6.22195 27.8262 6.63986 28.0408 7.14813C28.2554 7.6451 28.3627 8.23243 28.3627 8.91011C28.3627 9.77981 28.165 10.514 27.7697 11.1126C27.3744 11.6999 26.787 12.1461 26.0077 12.451C25.2396 12.756 24.2796 12.9085 23.1275 12.9085H20.9081ZM19.1969 16.0597V4.87788H21.6366V16.0597H19.1969Z" fill="#7C828C"/>
<path d="M32.702 19.1432C32.2502 19.1432 31.7871 19.098 31.3127 19.0077C30.8496 18.9286 30.4091 18.7987 29.9912 18.618C29.5846 18.4486 29.2345 18.2283 28.9408 17.9572L29.6355 15.8733C29.9969 16.2461 30.4487 16.5228 30.9908 16.7035C31.533 16.8955 32.0695 16.9915 32.6003 16.9915C33.199 16.9915 33.6959 16.8673 34.0912 16.6188C34.4979 16.3816 34.8028 16.0145 35.0061 15.5176C35.2207 15.0093 35.345 14.3768 35.3789 13.62L35.4805 12.0783H35.1078C34.9948 12.8238 34.8085 13.4337 34.5487 13.9081C34.3002 14.3824 33.9783 14.7326 33.583 14.9585C33.199 15.1731 32.7415 15.2804 32.2107 15.2804C31.5669 15.2804 31.0247 15.1166 30.5842 14.789C30.1437 14.4615 29.8105 13.9702 29.5846 13.3151C29.37 12.66 29.2627 11.8524 29.2627 10.8923V7.16507H31.7024V10.2994C31.7024 11.3498 31.821 12.1065 32.0582 12.5696C32.2954 13.0327 32.6568 13.2643 33.1425 13.2643C33.4023 13.2643 33.6395 13.1965 33.8541 13.0609C34.0687 12.9141 34.2494 12.7052 34.3962 12.4341C34.5543 12.163 34.6729 11.8355 34.752 11.4514C34.8423 11.0561 34.8875 10.61 34.8875 10.113V7.16507H37.3272V13.7048C37.3272 14.4163 37.2651 15.0658 37.1408 15.6531C37.0166 16.2291 36.8302 16.7318 36.5817 17.161C36.3446 17.6015 36.0396 17.9685 35.6669 18.2622C35.2941 18.5559 34.8593 18.7761 34.3623 18.9229C33.8766 19.0698 33.3232 19.1432 32.702 19.1432Z" fill="#7C828C"/>
<path d="M38.8547 16.0597V7.16507H40.8538L40.8369 9.82499H41.1757C41.3226 9.18119 41.5315 8.64469 41.8026 8.21548C42.0737 7.78628 42.4125 7.46438 42.8191 7.24978C43.237 7.03518 43.7284 6.92788 44.2931 6.92788C45.3209 6.92788 46.1003 7.28931 46.6311 8.01218C47.1733 8.73504 47.4443 9.87017 47.4443 11.4176V16.0597H44.9877V11.6886C44.9877 10.7399 44.8465 10.0509 44.5642 9.62169C44.2931 9.18119 43.8921 8.96094 43.3613 8.96094C42.9095 8.96094 42.5311 9.10213 42.2262 9.38449C41.9212 9.66686 41.6897 10.0396 41.5315 10.5027C41.3847 10.9545 41.3056 11.4627 41.2943 12.0275V16.0597H38.8547Z" fill="#7C828C"/>
<path d="M48.8752 16.0597V7.16507H51.3149V16.0597H48.8752ZM50.112 5.82664C49.6376 5.82664 49.2705 5.73063 49.0107 5.53862C48.7622 5.33531 48.638 5.04165 48.638 4.65763C48.638 4.26231 48.7622 3.963 49.0107 3.75969C49.2705 3.55639 49.6376 3.45473 50.112 3.45473C50.5976 3.45473 50.9647 3.55639 51.2132 3.75969C51.473 3.963 51.6029 4.26231 51.6029 4.65763C51.6029 5.03035 51.473 5.31837 51.2132 5.52168C50.9647 5.72498 50.5976 5.82664 50.112 5.82664Z" fill="#7C828C"/>
<path d="M56.9386 16.2969C56.0463 16.2969 55.2613 16.1218 54.5837 15.7717C53.906 15.4103 53.3751 14.8851 52.9911 14.1961C52.6071 13.4958 52.4151 12.6261 52.4151 11.587C52.4151 10.5479 52.6071 9.68381 52.9911 8.99482C53.3864 8.30584 53.9229 7.79193 54.6006 7.45309C55.2896 7.10295 56.0689 6.92788 56.9386 6.92788C57.8309 6.92788 58.6159 7.10295 59.2936 7.45309C59.9826 7.80323 60.5191 8.32843 60.9031 9.02871C61.2984 9.71769 61.4961 10.5817 61.4961 11.6209C61.4961 12.6713 61.2928 13.5466 60.8861 14.2469C60.4908 14.9359 59.9487 15.4498 59.2597 15.7886C58.582 16.1275 57.8083 16.2969 56.9386 16.2969ZM57.0233 14.4841C57.4638 14.4841 57.8309 14.3824 58.1246 14.1791C58.4295 13.9758 58.6554 13.6709 58.8023 13.2643C58.9604 12.8463 59.0394 12.3437 59.0394 11.7564C59.0394 11.1352 58.9547 10.61 58.7853 10.1808C58.6272 9.74028 58.39 9.40708 58.0737 9.18119C57.7575 8.944 57.3565 8.8254 56.8709 8.8254C56.4529 8.8254 56.0915 8.92706 55.7866 9.13036C55.4816 9.32237 55.25 9.62733 55.0919 10.0452C54.9338 10.4519 54.8547 10.9545 54.8547 11.5531C54.8547 12.5132 55.0467 13.2417 55.4308 13.7386C55.8148 14.2356 56.3456 14.4841 57.0233 14.4841Z" fill="#7C828C"/>
<path d="M62.5629 16.0597V7.16507H64.5621L64.5451 9.82499H64.884C65.0308 9.18119 65.2398 8.64469 65.5108 8.21548C65.7819 7.78628 66.1208 7.46438 66.5274 7.24978C66.9453 7.03518 67.4366 6.92788 68.0014 6.92788C69.0292 6.92788 69.8085 7.28931 70.3394 8.01218C70.8815 8.73504 71.1526 9.87017 71.1526 11.4176V16.0597H68.696V11.6886C68.696 10.7399 68.5548 10.0509 68.2724 9.62169C68.0014 9.18119 67.6004 8.96094 67.0695 8.96094C66.6177 8.96094 66.2394 9.10213 65.9344 9.38449C65.6294 9.66686 65.3979 10.0396 65.2398 10.5027C65.0929 10.9545 65.0139 11.4627 65.0026 12.0275V16.0597H62.5629Z" fill="#7C828C"/>
<path d="M76.1413 16.2969C75.5427 16.2969 75.0005 16.2404 74.5148 16.1275C74.0292 16.0145 73.6113 15.8508 73.2611 15.6362C72.911 15.4216 72.6286 15.1674 72.414 14.8738C72.1994 14.5688 72.0582 14.23 71.9905 13.8572L73.8541 13.0948C73.8993 13.3433 74.0235 13.5749 74.2268 13.7895C74.4301 14.0041 74.7012 14.1791 75.04 14.3147C75.3902 14.4389 75.8081 14.501 76.2938 14.501C76.8133 14.501 77.2143 14.4276 77.4967 14.2808C77.779 14.1227 77.9202 13.9024 77.9202 13.62C77.9202 13.4054 77.8412 13.236 77.683 13.1118C77.5249 12.9875 77.2934 12.8802 76.9884 12.7899C76.6834 12.6995 76.3164 12.6148 75.8872 12.5357C75.4692 12.4341 75.04 12.3268 74.5995 12.2138C74.1703 12.1009 73.7694 11.9428 73.3967 11.7395C73.0352 11.5362 72.7359 11.2707 72.4987 10.9432C72.2728 10.6043 72.1599 10.1751 72.1599 9.65557C72.1599 9.11342 72.3067 8.63904 72.6004 8.23243C72.894 7.82581 73.3232 7.50956 73.888 7.28367C74.4527 7.04647 75.1417 6.92788 75.9549 6.92788C76.6891 6.92788 77.3329 7.02953 77.8863 7.23284C78.4398 7.42485 78.8916 7.70722 79.2417 8.07995C79.6031 8.44138 79.846 8.87623 79.9702 9.38449L77.988 10.0452C77.9428 9.77417 77.8299 9.53698 77.6491 9.33367C77.4797 9.13036 77.2482 8.97788 76.9545 8.87623C76.6721 8.77458 76.3389 8.72375 75.9549 8.72375C75.4692 8.72375 75.0909 8.80281 74.8198 8.96094C74.56 9.11907 74.4301 9.32802 74.4301 9.5878C74.4301 9.8024 74.5148 9.97747 74.6843 10.113C74.865 10.2485 75.1135 10.3615 75.4297 10.4519C75.746 10.5309 76.1187 10.6156 76.5479 10.706C76.9997 10.7963 77.4402 10.9036 77.8694 11.0279C78.2986 11.1408 78.6826 11.2933 79.0215 11.4853C79.3716 11.6773 79.6483 11.9315 79.8516 12.2477C80.0549 12.564 80.1566 12.9706 80.1566 13.4676C80.1566 14.0549 79.9985 14.5632 79.6822 14.9924C79.3659 15.4103 78.9085 15.7322 78.3099 15.9581C77.7113 16.184 76.9884 16.2969 76.1413 16.2969Z" fill="#7C828C"/>
<path fill-rule="evenodd" clip-rule="evenodd" d="M6.35344 2.87646C6.35344 1.42725 4.77864 0.526706 3.52962 1.26166L1.04932 2.69199C0.400051 3.06641 0 3.75891 0 4.50841V16.4711C0 17.214 0.393109 17.9015 1.03339 18.2782L3.52962 19.7472C4.78663 20.4683 6.35344 19.5609 6.35344 18.1117V2.87646Z" fill="#7C828C"/>
<path fill-rule="evenodd" clip-rule="evenodd" d="M7.76525 11.8806C7.76525 13.3297 9.33196 14.237 10.5889 13.5159L13.0692 12.0856C13.7184 11.7112 14.1185 11.0187 14.1185 10.2692V4.54978C14.1185 3.80029 13.7184 3.10779 13.0692 2.73337L10.5889 1.30304C9.33996 0.568098 7.76525 1.46856 7.76525 2.91767V11.8806Z" fill="#7C828C"/>
</svg>
