<svg width="400" height="400" viewBox="0 0 400 400" fill="none" xmlns="http://www.w3.org/2000/svg">
<g clip-path="url(#clip0_5953_27)">
<path d="M33.7144 400V0H213.714C239.238 0 262.285 5.52423 282.857 16.5713C303.81 27.6184 320.19 42.8567 331.999 62.2862C343.81 81.3327 349.714 103.048 349.714 127.428C349.714 152.571 343.81 175.238 331.999 195.428C320.19 215.238 303.999 230.858 283.428 242.285C262.857 253.714 239.618 259.429 213.714 259.429H126.285V400H33.7144ZM255.429 400L153.714 219.429L253.143 205.143L366.286 400H255.429ZM126.285 185.143H205.143C215.047 185.143 223.619 183.048 230.857 178.857C238.476 174.285 244.19 168 247.999 159.999C252.19 152 254.285 142.857 254.285 132.572C254.285 122.285 252 113.333 247.428 105.714C242.857 97.7146 236.19 91.6193 227.429 87.4281C219.048 83.2382 208.761 81.1433 196.571 81.1433H126.285V185.143Z" fill="black"/>
</g>
<defs>
<clipPath id="clip0_5953_27">
<rect width="400" height="400" fill="white"/>
</clipPath>
</defs>
</svg>
