<svg width="117" height="21" viewBox="0 0 117 21" fill="none" xmlns="http://www.w3.org/2000/svg">
<path fill-rule="evenodd" clip-rule="evenodd" d="M14.1027 17.9451V21C18.4134 19.595 21.5285 15.5438 21.5286 10.7643C21.5285 4.81937 16.7092 0 10.7643 0C4.81944 0 0 4.81937 0 10.7643C0 15.5373 3.10694 19.5841 7.40836 20.9943V17.9451C7.40836 17.3596 7.88314 16.885 8.46872 16.885H8.5629C8.35818 16.3816 7.45906 14.2916 5.82957 12.1499C8.02092 8.83634 9.161 6.27087 9.69834 2.4585H10.2122V11.0513C9.81345 11.2533 9.53953 11.666 9.53953 12.1435C9.53936 12.82 10.0879 13.3683 10.7643 13.3683C11.4407 13.3683 11.9893 12.82 11.989 12.1435C11.9893 11.666 11.7152 11.2533 11.3164 11.0513V2.4585H11.8302C12.3677 6.27087 13.5077 8.83624 15.6991 12.15C14.0696 14.2916 13.1703 16.3816 12.9655 16.885H13.0426C13.6282 16.885 14.1027 17.3596 14.1027 17.9451ZM83.582 7.56013C83.6896 7.82924 83.8242 8.06606 83.9856 8.27058L84.1309 8.30287C84.3893 8.16293 84.8145 7.94765 85.4065 7.65701C85.751 7.47402 86.0147 7.27488 86.1977 7.05959C86.3807 6.84431 86.4722 6.56981 86.4722 6.23612C86.4722 5.8809 86.3484 5.59026 86.1008 5.36421C85.864 5.12739 85.5572 5.00899 85.1805 5.00899C84.8468 5.00899 84.5454 5.08972 84.2763 5.25118C84.0071 5.40189 83.7972 5.60641 83.6465 5.86475C83.4958 6.11233 83.4205 6.38144 83.4205 6.67208C83.4205 6.98424 83.4743 7.28026 83.582 7.56013ZM83.2913 15.8594C83.1621 16.1393 82.9307 16.3492 82.597 16.4891L82.6132 16.6668C82.8607 16.6668 83.0868 16.6614 83.2913 16.6506C83.9372 16.6291 84.4754 16.6183 84.906 16.6183C85.2074 16.6183 85.7025 16.6291 86.3914 16.6506L87.441 16.6668L87.4571 16.4891C87.0373 16.3492 86.7467 16.0155 86.5852 15.4881C86.4991 15.262 86.4399 14.9875 86.4076 14.6646C86.3753 14.3309 86.3592 13.9326 86.3592 13.4697V12.4848L86.3753 11.0962C86.3861 10.8809 86.3914 10.6118 86.3914 10.2889C86.3914 9.68609 86.3699 9.23937 86.3269 8.94873C86.3161 8.90567 86.2892 8.868 86.2461 8.83571C86.2138 8.80341 86.1762 8.78727 86.1331 8.78727C86.0147 8.78727 85.7886 8.868 85.4549 9.02946C85.1213 9.18016 84.766 9.36316 84.3893 9.57844C83.8595 9.8534 83.2772 10.1236 82.6414 10.3889C82.6122 10.2302 82.5657 10.0731 82.5022 9.91752C82.3945 9.61612 82.2384 9.37392 82.0339 9.19093C81.8294 9.00793 81.6033 8.91644 81.3558 8.91644C81.1728 8.91644 81.0005 8.96488 80.8391 9.06176C80.6776 9.15864 80.5161 9.30934 80.3547 9.51386C80.1394 9.76144 79.9349 10.0628 79.7411 10.4181C79.5473 10.7733 79.3805 11.1285 79.2406 11.4837V10.4342C79.2406 10.1436 79.2352 9.84217 79.2244 9.53C79.2244 9.21784 79.2083 9.00793 79.176 8.90029C79.1652 8.868 79.1383 8.84109 79.0952 8.81956C79.063 8.79803 79.0307 8.78727 78.9984 8.78727C78.8692 8.78727 78.6216 8.87338 78.2556 9.04561C77.9004 9.21784 77.5183 9.41698 77.1092 9.64303C76.7971 9.81526 76.2266 10.079 75.3977 10.4342L75.43 10.6118L75.656 10.5957C75.796 10.5957 75.9198 10.6441 76.0274 10.741C76.1458 10.8271 76.2319 10.9617 76.2858 11.1447C76.4149 11.5752 76.4795 12.3772 76.4795 13.5505C76.4795 14.1856 76.4526 14.6915 76.3988 15.0682C76.345 15.445 76.2642 15.7356 76.1566 15.9402C76.092 16.0693 75.9897 16.1877 75.8498 16.2954C75.7206 16.3923 75.5915 16.4568 75.4623 16.4891L75.4784 16.6668L76.2696 16.6506C76.9585 16.6291 77.4752 16.6183 77.8197 16.6183C78.0995 16.6183 78.6055 16.6291 79.3374 16.6506L80.7745 16.6668L80.7906 16.473C80.4462 16.4192 80.1663 16.3115 79.951 16.1501C79.7357 15.9886 79.585 15.8002 79.4989 15.5849C79.3913 15.3266 79.3213 15.0198 79.289 14.6646C79.2567 14.3094 79.2406 13.8626 79.2406 13.3244V12.9531C79.2406 12.5763 79.2836 12.2588 79.3697 12.0004C79.4559 11.7313 79.5635 11.5268 79.6927 11.3869C79.725 11.3761 79.7842 11.3707 79.8703 11.3707C79.9779 11.3707 80.1125 11.3869 80.2739 11.4191C80.4354 11.4514 80.5969 11.4891 80.7583 11.5322C80.9413 11.586 81.1243 11.6344 81.3073 11.6775C81.4903 11.7098 81.6518 11.7259 81.7917 11.7259C82.0501 11.7259 82.26 11.6398 82.4214 11.4676C82.5937 11.2954 82.6798 11.0747 82.6798 10.8056C82.6798 10.7367 82.6767 10.668 82.6707 10.5996C82.708 10.597 82.7534 10.5957 82.8069 10.5957C82.9146 10.5957 83.0168 10.628 83.1137 10.6926C83.2106 10.7571 83.2913 10.854 83.3559 10.9832C83.5281 11.2954 83.6143 12.0919 83.6143 13.3729C83.6143 14.5677 83.5066 15.3966 83.2913 15.8594ZM30.1536 16.6506C29.357 16.6291 28.7919 16.6183 28.4582 16.6183L26.0846 16.6506L25.4065 16.6668L25.3903 16.473C26.23 16.2147 26.7359 15.6818 26.9081 14.8745C27.005 14.5193 27.0642 14.008 27.0857 13.3406C27.1073 12.6624 27.118 11.8497 27.118 10.9025C27.118 9.46004 27.0911 8.38899 27.0373 7.6893C27.005 7.29102 26.935 6.96809 26.8274 6.72052C26.7197 6.46217 26.5637 6.23612 26.3591 6.04236C26.1869 5.8809 25.9985 5.76249 25.794 5.68714C25.5895 5.60103 25.3957 5.5472 25.2127 5.52568L25.2288 5.33192C25.6272 5.35345 26.09 5.36959 26.6175 5.38036H28.103L29.5077 5.36421C30.2397 5.34268 30.7779 5.33192 31.1223 5.33192C32.005 5.33192 32.7262 5.38574 33.286 5.49338C33.8565 5.59026 34.3409 5.77325 34.7392 6.04236C35.0944 6.28994 35.3581 6.56443 35.5303 6.86583C35.7026 7.16723 35.7887 7.52784 35.7887 7.94765C35.7887 8.64733 35.5142 9.2286 34.9652 9.69147C34.4485 10.1328 33.7919 10.445 32.9953 10.628C33.9641 10.7248 34.7338 10.9724 35.3043 11.3707C35.638 11.586 35.8963 11.8605 36.0793 12.1942C36.2731 12.5279 36.37 12.9154 36.37 13.3567C36.37 13.8842 36.2515 14.3632 36.0147 14.7938C35.7779 15.2136 35.4442 15.558 35.0136 15.8271C34.1417 16.3976 32.9792 16.6829 31.526 16.6829L30.1536 16.6506ZM31.1546 10.5795C31.639 10.5795 32.0158 10.5365 32.2849 10.4504C32.4679 10.2351 32.6024 9.96058 32.6886 9.62688C32.7854 9.29319 32.8339 8.92182 32.8339 8.51278C32.8339 8.04991 32.737 7.59781 32.5432 7.15647C32.3495 6.70437 32.0696 6.34915 31.7036 6.0908C31.4345 5.90781 31.1439 5.79478 30.8317 5.75173C30.6164 5.75173 30.4065 5.78402 30.202 5.8486C30.1589 6.06389 30.1159 6.4245 30.0728 6.93042C30.019 7.84539 29.9921 9.02946 29.9921 10.4826C30.3796 10.5472 30.7671 10.5795 31.1546 10.5795ZM31.4614 16.2308C31.6659 16.177 31.8651 16.0909 32.0588 15.9725C32.2634 15.8433 32.4302 15.6872 32.5594 15.5042C32.7424 15.2674 32.8823 14.9875 32.9792 14.6646C33.0868 14.3309 33.1407 13.9811 33.1407 13.6151C33.1407 13.2598 33.0922 12.9315 32.9953 12.6301C32.8985 12.318 32.7585 12.0489 32.5755 11.8228C32.3925 11.6183 32.1772 11.4514 31.9297 11.3223C31.6929 11.1931 31.4399 11.107 31.1708 11.0639C30.8586 11.0639 30.4657 11.0532 29.9921 11.0316V12.4525C29.9921 13.5182 30.0298 14.3147 30.1051 14.8422C30.1589 15.219 30.2827 15.5257 30.4765 15.7625C30.5841 15.9025 30.7294 16.0155 30.9124 16.1016C31.0954 16.177 31.2784 16.22 31.4614 16.2308ZM40.1233 12.7109C40.1233 13.2814 40.2148 13.7711 40.3978 14.1802C40.5916 14.5785 40.8553 14.8799 41.189 15.0844C41.5335 15.2889 41.9264 15.3912 42.3677 15.3912C43.175 15.3912 43.9178 15.0144 44.5959 14.2609L44.7735 14.3901C44.3753 15.0682 43.8639 15.6441 43.2396 16.1178C42.6153 16.5914 41.8887 16.8282 41.0598 16.8282C40.048 16.8282 39.203 16.5806 38.5248 16.0855C38.0727 15.7625 37.7175 15.332 37.4592 14.7938C37.2008 14.2448 37.0717 13.6097 37.0717 12.8885C37.0717 12.1996 37.2385 11.5591 37.5722 10.967C37.9167 10.375 38.3903 9.90137 38.9931 9.54615C39.5959 9.19093 40.2794 9.01332 41.0437 9.01332C41.7326 9.01332 42.3246 9.14787 42.8198 9.41698C43.315 9.68609 43.7132 10.0359 44.0146 10.4665C44.316 10.8971 44.5313 11.3707 44.6605 11.8874C44.7036 12.0596 44.7251 12.1834 44.7251 12.2588C44.7251 12.3341 44.6982 12.3987 44.6444 12.4525L40.1233 12.5494V12.7109ZM41.0437 9.35239C40.7746 9.55692 40.5593 9.90137 40.3978 10.3858C40.2471 10.8594 40.161 11.4622 40.1395 12.1942C40.4624 12.1942 40.7907 12.1888 41.1244 12.178C41.4581 12.1565 41.7595 12.1296 42.0286 12.0973C41.9856 11.3976 41.8779 10.7894 41.7057 10.2727C41.5442 9.75605 41.3236 9.44927 41.0437 9.35239ZM46.8248 15.4881C46.2435 15.0037 45.7699 14.4654 45.4039 13.8734L45.2263 13.9057C45.2478 14.0456 45.2694 14.2771 45.2909 14.6C45.3339 14.966 45.377 15.3212 45.4201 15.6657C45.4631 16.0101 45.5116 16.2523 45.5654 16.3923C45.8775 16.5322 46.2758 16.6398 46.7602 16.7152C47.2446 16.7905 47.7667 16.8282 48.3264 16.8282C48.8646 16.8282 49.349 16.769 49.7796 16.6506C50.221 16.5214 50.5923 16.3438 50.8937 16.1178C51.1628 15.9132 51.3674 15.6603 51.5073 15.3589C51.658 15.0575 51.7333 14.7292 51.7333 14.374C51.7333 13.7819 51.5503 13.3029 51.1844 12.9369C51.0014 12.7539 50.7807 12.5871 50.5224 12.4364C50.264 12.2857 49.9357 12.1134 49.5374 11.9197C49.2898 11.812 49.0476 11.699 48.8108 11.5806C48.574 11.4514 48.4018 11.3384 48.2941 11.2415C48.1111 11.1016 47.9766 10.9617 47.8905 10.8217C47.8151 10.6818 47.7775 10.5096 47.7775 10.305C47.7775 10.079 47.8367 9.87446 47.9551 9.69147C48.0842 9.50848 48.2403 9.3793 48.4233 9.30395C48.8862 9.45465 49.3813 9.76144 49.9088 10.2243C50.4362 10.6764 50.9099 11.2146 51.3297 11.839L51.5234 11.8067C51.4911 11.516 51.475 11.1769 51.475 10.7894C51.4642 10.6818 51.4481 10.4665 51.4266 10.1436C51.4158 9.80988 51.3943 9.5623 51.362 9.40083C51.0283 9.28242 50.63 9.18555 50.1671 9.1102C49.715 9.02408 49.2306 8.98102 48.7139 8.98102C47.7021 8.98102 46.9002 9.20707 46.3081 9.65918C46.0175 9.87446 45.7914 10.1328 45.63 10.4342C45.4685 10.7356 45.3878 11.0747 45.3878 11.4514C45.3878 11.8067 45.447 12.1188 45.5654 12.3879C45.6838 12.657 45.8614 12.8992 46.0982 13.1145C46.3027 13.2975 46.5557 13.4751 46.8571 13.6474C47.1585 13.8196 47.503 13.9972 47.8905 14.1802C48.1919 14.3201 48.4395 14.4547 48.6332 14.5839C48.8377 14.7023 48.9938 14.8261 49.1015 14.9552C49.2522 15.1167 49.3275 15.3104 49.3275 15.5365C49.3275 15.7625 49.2522 15.9617 49.1015 16.1339C48.9615 16.2954 48.7785 16.4084 48.5525 16.473C47.9927 16.29 47.4168 15.9617 46.8248 15.4881ZM54.7504 16.8444C54.1799 16.8444 53.7385 16.6721 53.4264 16.3277C53.0819 15.9509 52.9097 15.3481 52.9097 14.5193C52.9097 14.1318 52.9151 13.8088 52.9258 13.5505L52.942 12.178C52.942 11.4245 52.9366 10.8325 52.9258 10.4019C52.5275 10.4019 52.1346 10.4127 51.7471 10.4342L51.7148 10.2404C52.0916 10.0467 52.463 9.81526 52.8289 9.54615C53.2057 9.26628 53.5394 8.98102 53.83 8.69039C54.4221 8.10911 54.9818 7.42558 55.5093 6.63978L55.7515 6.68822C55.7084 7.46325 55.6869 8.2329 55.6869 8.99717V9.20708C56.9894 9.20708 57.7752 9.20169 58.0443 9.19093C58.0443 9.53539 58.0012 9.94443 57.9151 10.4181C57.5922 10.4073 56.8548 10.4019 55.703 10.4019V12.3556C55.703 13.4213 55.7353 14.1371 55.7999 14.5031C55.843 14.783 55.9345 14.9929 56.0744 15.1328C56.2251 15.2728 56.4081 15.3427 56.6234 15.3427C56.8279 15.3427 57.0324 15.2943 57.2369 15.1974C57.4522 15.0898 57.6406 14.9552 57.8021 14.7938L58.012 14.9875C57.7967 15.2459 57.5545 15.4988 57.2854 15.7464C57.0163 15.9832 56.7418 16.1824 56.4619 16.3438C56.1928 16.5053 55.9183 16.6291 55.6384 16.7152C55.3586 16.8013 55.0625 16.8444 54.7504 16.8444ZM64.7541 15.7625C64.9694 16.2685 65.1255 16.6668 65.2224 16.9574L65.5938 16.9412C65.8198 16.3169 66.2019 15.3535 66.7402 14.051L67.7735 11.5322C67.9996 10.9724 68.1987 10.4504 68.371 9.96596L69.7918 13.4536L70.1794 14.4062C70.7929 15.9455 71.132 16.7959 71.1966 16.9574L71.5518 16.9412C71.6702 16.6291 71.7886 16.3331 71.907 16.0532C72.0254 15.7625 72.1331 15.4934 72.23 15.2459L72.6982 14.0995L73.7477 11.5968C74.6089 9.51924 75.3301 8.04991 75.9114 7.18876C76.2451 6.6936 76.5626 6.31685 76.864 6.05851C77.1008 5.84322 77.3645 5.66561 77.6552 5.52568L77.639 5.33192C77.3592 5.34268 77.0039 5.35345 76.5734 5.36421H75.3301C74.4259 5.36421 73.5432 5.35345 72.6821 5.33192L72.6659 5.52568C72.8489 5.60103 73.0211 5.70329 73.1826 5.83246C73.3548 5.95087 73.4948 6.08542 73.6024 6.23612C73.7424 6.42988 73.8554 6.66669 73.9415 6.94657C74.0276 7.21567 74.0707 7.50631 74.0707 7.81848C74.0707 8.30287 74.0007 8.86262 73.8608 9.49771C73.7208 10.122 73.5163 10.7679 73.2472 11.4353L72.5206 13.2114H72.4722C72.1815 12.318 71.8048 11.2792 71.3419 10.0951C70.9544 9.12634 70.6799 8.4159 70.5184 7.96379C70.4 7.64086 70.3139 7.38252 70.2601 7.18876C70.217 6.99501 70.1955 6.80125 70.1955 6.60749C70.217 6.35991 70.3193 6.14462 70.5023 5.96163C70.696 5.76787 70.9275 5.62255 71.1966 5.52568L71.1804 5.33192L69.7111 5.34806C69.3882 5.35883 68.9361 5.36421 68.3548 5.36421H66.9501C66.498 5.35345 66.132 5.34268 65.8521 5.33192L65.8198 5.54182C66.0889 5.66023 66.3257 5.85399 66.5303 6.1231C66.7348 6.38144 66.9447 6.7259 67.16 7.15647C67.4829 7.85615 67.7628 8.50739 67.9996 9.1102C67.9027 9.69147 67.6713 10.4288 67.3053 11.3223L66.5303 13.1791H66.4818C66.245 12.3933 65.8682 11.3384 65.3516 10.0144C65.2439 9.75605 65.1686 9.55692 65.1255 9.41698C64.8995 8.87876 64.7111 8.3836 64.5604 7.9315C64.442 7.60857 64.3559 7.35023 64.302 7.15647C64.259 6.96271 64.2321 6.77972 64.2213 6.60749C64.2321 6.35991 64.3128 6.14462 64.4635 5.96163C64.6142 5.76787 64.7972 5.62255 65.0125 5.52568L64.9802 5.33192C63.7746 5.35345 62.8112 5.36421 62.09 5.36421L60.443 5.34806C60.2062 5.3373 59.9048 5.33192 59.5388 5.33192L59.5227 5.54182C59.8241 5.6387 60.1147 5.84322 60.3946 6.15539C60.6745 6.46755 60.9274 6.83892 61.1535 7.2695C61.7455 8.38899 62.6336 10.4504 63.8176 13.4536L64.2859 14.5839C64.3935 14.8637 64.5496 15.2566 64.7541 15.7625ZM90.0957 16.8444C89.5252 16.8444 89.0839 16.6721 88.7717 16.3277C88.4273 15.9509 88.255 15.3481 88.255 14.5193C88.255 14.1318 88.2604 13.8088 88.2712 13.5505L88.2873 12.178C88.2873 11.4245 88.2819 10.8325 88.2712 10.4019C87.8729 10.4019 87.48 10.4127 87.0925 10.4342L87.0602 10.2404C87.4369 10.0467 87.8083 9.81526 88.1743 9.54615C88.551 9.26628 88.8847 8.98102 89.1754 8.69039C89.7674 8.10911 90.3271 7.42558 90.8546 6.63978L91.0968 6.68822C91.0537 7.46325 91.0322 8.2329 91.0322 8.99717V9.20708C92.3347 9.20708 93.1205 9.20169 93.3896 9.19093C93.3896 9.53539 93.3465 9.94443 93.2604 10.4181C92.9375 10.4073 92.2001 10.4019 91.0484 10.4019V12.3556C91.0484 13.4213 91.0807 14.1371 91.1452 14.5031C91.1883 14.783 91.2798 14.9929 91.4197 15.1328C91.5704 15.2728 91.7534 15.3427 91.9687 15.3427C92.1732 15.3427 92.3778 15.2943 92.5823 15.1974C92.7976 15.0898 92.9859 14.9552 93.1474 14.7938L93.3573 14.9875C93.142 15.2459 92.8998 15.4988 92.6307 15.7464C92.3616 15.9832 92.0871 16.1824 91.8072 16.3438C91.5381 16.5053 91.2636 16.6291 90.9838 16.7152C90.7039 16.8013 90.4079 16.8444 90.0957 16.8444ZM94.3967 7.56013C94.5044 7.82924 94.6389 8.06606 94.8004 8.27058L94.9457 8.30287C95.2041 8.16293 95.6293 7.94765 96.2213 7.65701C96.5658 7.47402 96.8295 7.27488 97.0125 7.05959C97.1955 6.84431 97.287 6.56981 97.287 6.23612C97.287 5.8809 97.1632 5.59026 96.9156 5.36421C96.6788 5.12739 96.372 5.00899 95.9952 5.00899C95.6616 5.00899 95.3602 5.08972 95.091 5.25118C94.8219 5.40189 94.612 5.60641 94.4613 5.86475C94.3106 6.11233 94.2353 6.38144 94.2353 6.67208C94.2353 6.98424 94.2891 7.28026 94.3967 7.56013ZM94.1061 15.8594C93.9769 16.1393 93.7455 16.3492 93.4118 16.4891L93.428 16.6668C93.6755 16.6668 93.9016 16.6614 94.1061 16.6506C94.752 16.6291 95.2902 16.6183 95.7207 16.6183C96.0222 16.6183 96.5173 16.6291 97.2062 16.6506L98.1656 16.6654L98.1659 16.6668L98.1942 16.6658L98.2558 16.6668L98.2561 16.6638L98.6503 16.6506C99.2962 16.6291 99.8936 16.6183 100.443 16.6183C100.787 16.6183 101.304 16.6291 101.993 16.6506L102.961 16.6668L102.978 16.4891C102.73 16.403 102.536 16.2577 102.396 16.0532C102.256 15.8487 102.16 15.6172 102.106 15.3589C101.998 14.9391 101.944 14.0564 101.944 12.7109V10.9347C102.095 10.8163 102.262 10.7195 102.445 10.6441C102.628 10.5688 102.8 10.5311 102.961 10.5311C103.241 10.5311 103.473 10.6011 103.656 10.741C103.85 10.8809 103.979 11.1016 104.043 11.403C104.108 11.6721 104.151 11.9627 104.172 12.2749C104.194 12.5763 104.205 12.9315 104.205 13.3406C104.205 13.8357 104.194 14.2502 104.172 14.5839C104.151 14.9175 104.102 15.2297 104.027 15.5204C103.963 15.7679 103.871 15.9671 103.753 16.1178C103.634 16.2577 103.484 16.3815 103.301 16.4891L103.317 16.6668C104.479 16.6345 105.27 16.6183 105.69 16.6183C106.024 16.6183 106.46 16.6291 106.998 16.6506L108.128 16.6668L108.144 16.4891C107.972 16.4353 107.827 16.3654 107.709 16.2792C107.59 16.1824 107.488 16.0586 107.402 15.9079C107.262 15.6711 107.165 15.3104 107.111 14.8261C107.068 14.3524 107.036 13.6743 107.014 12.7916V12.4364C106.993 11.6506 106.96 11.1016 106.917 10.7894C106.745 9.61612 106.083 9.02946 104.931 9.02946C104.63 9.02946 104.312 9.09943 103.979 9.23937C103.656 9.3793 103.338 9.55691 103.026 9.7722C102.725 9.97672 102.364 10.2404 101.944 10.5634V10.3535C101.944 10.1059 101.939 9.85293 101.928 9.59459C101.928 9.33625 101.912 9.11558 101.88 8.93258C101.869 8.88953 101.842 8.85723 101.799 8.83571C101.767 8.80341 101.729 8.78727 101.686 8.78727C101.438 8.78727 100.9 9.02408 100.071 9.49771C99.5438 9.78835 98.8818 10.1005 98.0852 10.4342L98.1336 10.6118C98.1875 10.6011 98.2574 10.5957 98.3435 10.5957C98.4942 10.5957 98.6234 10.6441 98.7311 10.741C98.8387 10.8379 98.9194 10.967 98.9733 11.1285C99.1024 11.5483 99.167 12.2211 99.167 13.1468C99.167 13.7173 99.1509 14.1963 99.1186 14.5839C99.0971 15.0898 99.0163 15.4988 98.8764 15.811C98.801 15.994 98.7041 16.1339 98.5857 16.2308C98.4801 16.3172 98.353 16.3952 98.2043 16.4645C97.8208 16.3122 97.5527 15.9867 97.4 15.4881C97.3139 15.262 97.2547 14.9875 97.2224 14.6646C97.1901 14.3309 97.1739 13.9326 97.1739 13.4697V12.4848L97.1901 11.0962C97.2009 10.8809 97.2062 10.6118 97.2062 10.2889C97.2062 9.68609 97.1847 9.23937 97.1416 8.94873C97.1309 8.90567 97.104 8.868 97.0609 8.83571C97.0286 8.80341 96.9909 8.78727 96.9479 8.78727C96.8295 8.78727 96.6034 8.868 96.2697 9.02946C95.936 9.18016 95.5808 9.36316 95.2041 9.57844C94.6443 9.86908 94.0254 10.1543 93.3472 10.4342L93.3957 10.6118C93.4387 10.6011 93.5141 10.5957 93.6217 10.5957C93.7294 10.5957 93.8316 10.628 93.9285 10.6926C94.0254 10.7571 94.1061 10.854 94.1707 10.9832C94.3429 11.2954 94.429 12.0919 94.429 13.3729C94.429 14.5677 94.3214 15.3966 94.1061 15.8594ZM110.129 20.219C110.614 20.2943 111.141 20.332 111.712 20.332C112.433 20.332 113.111 20.2674 113.746 20.1382C114.392 20.0198 114.941 19.8476 115.393 19.6216C115.792 19.417 116.098 19.1695 116.314 18.8788C116.529 18.5989 116.637 18.2868 116.637 17.9423C116.637 17.6086 116.561 17.318 116.41 17.0704C116.271 16.8228 116.044 16.6075 115.732 16.4246C115.119 16.0586 114.145 15.7948 112.81 15.6334L111.825 15.5042L112.406 15.2136C112.912 14.9875 113.332 14.7884 113.666 14.6161C114.01 14.4332 114.322 14.2394 114.602 14.0349C114.968 13.755 115.248 13.4482 115.442 13.1145C115.646 12.7701 115.748 12.3664 115.748 11.9035C115.748 11.333 115.565 10.8271 115.199 10.3858C114.844 9.94443 114.376 9.60535 113.795 9.36854C113.988 9.3793 114.198 9.40621 114.424 9.44927C114.661 9.48156 114.877 9.51924 115.07 9.5623C115.103 9.57306 115.221 9.59997 115.426 9.64303C115.641 9.67532 115.824 9.69147 115.975 9.69147C116.222 9.69147 116.421 9.61612 116.572 9.46542C116.733 9.31472 116.814 9.1102 116.814 8.85185C116.814 8.61504 116.766 8.39437 116.669 8.18985C116.583 7.98532 116.454 7.82386 116.281 7.70545C116.12 7.57628 115.926 7.51169 115.7 7.51169C115.517 7.51169 115.345 7.57628 115.183 7.70545C115.022 7.82386 114.828 8.01223 114.602 8.27058C114.387 8.51816 114.193 8.72268 114.021 8.88414C113.849 9.03485 113.655 9.14787 113.44 9.22322C113.278 9.15864 113.09 9.1102 112.874 9.0779C112.659 9.03485 112.438 9.01332 112.212 9.01332C111.739 9.01332 111.27 9.09405 110.808 9.25551C110.356 9.41698 109.957 9.63765 109.613 9.91752C109.268 10.1974 108.999 10.5257 108.805 10.9025C108.612 11.2792 108.515 11.6883 108.515 12.1296C108.515 12.8939 108.849 13.529 109.516 14.0349C110.097 14.4654 110.926 14.7991 112.002 15.036L109.096 16.4891L109.128 16.6829C110.054 16.8336 110.646 16.9359 110.905 16.9897C109.936 17.1942 109.182 17.4256 108.644 17.684C108.117 17.9531 107.853 18.2975 107.853 18.7174C107.853 18.9542 107.944 19.1695 108.127 19.3632C108.31 19.5677 108.574 19.7453 108.918 19.896C109.252 20.036 109.656 20.1436 110.129 20.219ZM112.874 13.6797C112.745 14.1425 112.562 14.5085 112.325 14.7776C111.981 14.5193 111.701 14.164 111.486 13.7119C111.281 13.2491 111.179 12.6732 111.179 11.9843C111.179 11.3492 111.254 10.8056 111.405 10.3535C111.567 9.90137 111.76 9.56768 111.986 9.35239C112.277 9.55692 112.53 9.89061 112.745 10.3535C112.971 10.8163 113.084 11.3869 113.084 12.065C113.084 12.6678 113.014 13.206 112.874 13.6797ZM113.359 19.4601C113.004 19.7077 112.535 19.8799 111.954 19.9768C111.437 19.8907 111.034 19.7238 110.743 19.4762C110.463 19.2287 110.323 18.9165 110.323 18.5397C110.323 17.9369 110.652 17.4472 111.308 17.0704L111.534 17.1027C112.051 17.1996 112.46 17.2965 112.761 17.3933C113.074 17.4902 113.316 17.6032 113.488 17.7324C113.757 17.9369 113.892 18.2007 113.892 18.5236C113.892 18.9111 113.714 19.2233 113.359 19.4601Z" fill="#7C828C"/>
</svg>
