<svg width="121" height="21" viewBox="0 0 121 21" fill="none" xmlns="http://www.w3.org/2000/svg">
<path fill-rule="evenodd" clip-rule="evenodd" d="M5.94301 1L0 6.94301L11.9066 18.8497L23.7925 6.96371L17.8496 1.02071L11.9067 6.96366L5.94301 1Z" fill="#7C828C"/>
<path d="M39.7772 17.2246C38.4972 17.2246 37.3946 16.9268 36.4695 16.3312C35.5444 15.7229 34.8347 14.8928 34.3404 13.8409C33.8589 12.7891 33.6181 11.5725 33.6181 10.1911C33.6181 8.83508 33.8652 7.62481 34.3595 6.56028C34.8664 5.49575 35.5887 4.65933 36.5265 4.05102C37.4643 3.43005 38.5922 3.11956 39.9102 3.11956C41.0508 3.11956 42.0076 3.31599 42.7807 3.70885C43.5664 4.10172 44.1937 4.64666 44.6626 5.34367C45.1315 6.04069 45.461 6.84542 45.6511 7.75788L43.0658 7.89095C42.9264 7.09255 42.6096 6.4589 42.1153 5.98999C41.6211 5.50842 40.8924 5.26763 39.9292 5.26763C39.0675 5.26763 38.3578 5.48941 37.8002 5.93297C37.2552 6.37652 36.8434 6.97215 36.5646 7.71986C36.2984 8.45489 36.1654 9.27864 36.1654 10.1911C36.1654 11.1289 36.2984 11.9653 36.5646 12.7004C36.8307 13.4354 37.2426 14.0183 37.8002 14.4492C38.3705 14.8674 39.0865 15.0765 39.9483 15.0765C40.6199 15.0765 41.1965 14.9371 41.6781 14.6583C42.1597 14.3795 42.5399 13.9993 42.8187 13.5178C43.0975 13.0362 43.2496 12.4912 43.2749 11.8829H39.9483V9.96298H45.6891V16.9205H44.0923L43.9783 14.8864C43.6361 15.5961 43.0848 16.1664 42.3244 16.5973C41.5767 17.0155 40.7276 17.2246 39.7772 17.2246Z" fill="#7C828C"/>
<path d="M47.2115 16.9205V6.76938H49.4927L49.5497 8.74637C49.7525 8.06203 50.0503 7.56145 50.4431 7.24462C50.836 6.9278 51.3493 6.76938 51.9829 6.76938H52.9144V8.86043H51.9639C51.1908 8.86043 50.6079 9.03785 50.215 9.3927C49.8348 9.73487 49.6447 10.2925 49.6447 11.0655V16.9205H47.2115Z" fill="#7C828C"/>
<path d="M57.926 17.1486C56.9122 17.1486 56.0314 16.9331 55.2837 16.5023C54.536 16.0587 53.9531 15.4441 53.5348 14.6583C53.1293 13.8599 52.9265 12.9221 52.9265 11.8449C52.9265 10.7677 53.1293 9.83625 53.5348 9.05052C53.9531 8.25213 54.536 7.63749 55.2837 7.2066C56.0314 6.76305 56.9122 6.54127 57.926 6.54127C58.9272 6.54127 59.8016 6.76305 60.5494 7.2066C61.2971 7.63749 61.8737 8.25213 62.2792 9.05052C62.6974 9.83625 62.9065 10.7677 62.9065 11.8449C62.9065 12.9221 62.6974 13.8599 62.2792 14.6583C61.8737 15.4441 61.2971 16.0587 60.5494 16.5023C59.8016 16.9331 58.9272 17.1486 57.926 17.1486ZM57.926 15.1716C58.6991 15.1716 59.3011 14.8801 59.7319 14.2971C60.1628 13.7142 60.3783 12.8968 60.3783 11.8449C60.3783 10.7931 60.1628 9.97565 59.7319 9.3927C59.3011 8.80974 58.6991 8.51826 57.926 8.51826C57.1403 8.51826 56.532 8.80974 56.1011 9.3927C55.6702 9.97565 55.4548 10.7931 55.4548 11.8449C55.4548 12.8968 55.6702 13.7142 56.1011 14.2971C56.532 14.8801 57.1403 15.1716 57.926 15.1716Z" fill="#7C828C"/>
<path d="M65.8477 16.9205L62.7871 6.76938H65.2774L67.2544 14.1641L69.2884 6.76938H71.4174L73.4705 14.1641L75.4475 6.76938H77.9377L74.8772 16.9205H72.3679L70.3529 10.1151L68.3569 16.9205H65.8477Z" fill="#7C828C"/>
<path d="M82.5933 16.9205C81.5794 16.9205 80.8317 16.6923 80.3501 16.2361C79.8812 15.7672 79.6468 15.0258 79.6468 14.012V8.65133H78.05V6.76938H79.6468V4.3932H82.08V6.76938H84.7603V8.65133H82.08V13.7839C82.08 14.2655 82.1814 14.595 82.3841 14.7724C82.5996 14.9498 82.9164 15.0385 83.3346 15.0385H84.7603V16.9205H82.5933Z" fill="#7C828C"/>
<path d="M85.832 16.9205V3.42371H88.2652V8.11906C88.544 7.58679 88.9369 7.19393 89.4438 6.94047C89.9507 6.67434 90.521 6.54127 91.1547 6.54127C92.2826 6.54127 93.138 6.90245 93.7209 7.62481C94.3039 8.3345 94.5954 9.25963 94.5954 10.4002V16.9205H92.1622V10.9895C92.1622 9.342 91.5855 8.51826 90.4323 8.51826C89.7606 8.51826 89.2284 8.7337 88.8355 9.16458C88.4553 9.59546 88.2652 10.2228 88.2652 11.0465V16.9205H85.832Z" fill="#7C828C"/>
<path d="M98.765 16.9205C98.0173 16.9205 97.4217 16.7304 96.9781 16.3502C96.5472 15.97 96.3318 15.3617 96.3318 14.5253V3.42371H98.765V14.2781C98.765 14.7851 99.0185 15.0385 99.5254 15.0385H100.267V16.9205H98.765Z" fill="#7C828C"/>
<path d="M105.524 17.1486C104.51 17.1486 103.629 16.9331 102.882 16.5023C102.134 16.0587 101.551 15.4441 101.133 14.6583C100.727 13.8599 100.525 12.9221 100.525 11.8449C100.525 10.7677 100.727 9.83625 101.133 9.05052C101.551 8.25213 102.134 7.63749 102.882 7.2066C103.629 6.76305 104.51 6.54127 105.524 6.54127C106.525 6.54127 107.4 6.76305 108.147 7.2066C108.895 7.63749 109.472 8.25213 109.877 9.05052C110.295 9.83625 110.505 10.7677 110.505 11.8449C110.505 12.9221 110.295 13.8599 109.877 14.6583C109.472 15.4441 108.895 16.0587 108.147 16.5023C107.4 16.9331 106.525 17.1486 105.524 17.1486ZM105.524 15.1716C106.297 15.1716 106.899 14.8801 107.33 14.2971C107.761 13.7142 107.976 12.8968 107.976 11.8449C107.976 10.7931 107.761 9.97565 107.33 9.3927C106.899 8.80974 106.297 8.51826 105.524 8.51826C104.738 8.51826 104.13 8.80974 103.699 9.3927C103.268 9.97565 103.053 10.7931 103.053 11.8449C103.053 12.8968 103.268 13.7142 103.699 14.2971C104.13 14.8801 104.738 15.1716 105.524 15.1716Z" fill="#7C828C"/>
<path d="M116.003 20C114.673 20 113.627 19.7339 112.867 19.2016C112.107 18.6693 111.612 17.9723 111.384 17.1106L113.893 16.9395C114.02 17.3323 114.236 17.6301 114.54 17.8329C114.857 18.0484 115.344 18.1561 116.003 18.1561C116.751 18.1561 117.328 17.985 117.733 17.6428C118.139 17.3133 118.342 16.7937 118.342 16.084V14.7914C118.101 15.2856 117.714 15.6848 117.182 15.989C116.65 16.2805 116.054 16.4262 115.395 16.4262C114.559 16.4262 113.811 16.2234 113.152 15.8179C112.506 15.3997 111.999 14.8231 111.631 14.088C111.264 13.353 111.08 12.4912 111.08 11.5028C111.08 10.5269 111.264 9.6715 111.631 8.93647C111.999 8.18876 112.499 7.6058 113.133 7.18759C113.779 6.75671 114.521 6.54127 115.357 6.54127C116.08 6.54127 116.707 6.70602 117.239 7.03552C117.771 7.36502 118.164 7.80223 118.418 8.34717V6.76938H120.794V16.027C120.794 17.3323 120.357 18.3208 119.482 18.9925C118.608 19.6642 117.448 20 116.003 20ZM115.965 14.5253C116.688 14.5253 117.264 14.2591 117.695 13.7269C118.139 13.1819 118.361 12.4342 118.361 11.4837C118.373 10.5459 118.158 9.80457 117.714 9.25963C117.283 8.71469 116.701 8.44222 115.965 8.44222C115.218 8.44222 114.635 8.72103 114.217 9.27864C113.811 9.82358 113.608 10.5586 113.608 11.4837C113.608 12.4089 113.817 13.1502 114.236 13.7079C114.666 14.2528 115.243 14.5253 115.965 14.5253Z" fill="#7C828C"/>
</svg>
