<svg width="84" height="21" viewBox="0 0 84 21" fill="none" xmlns="http://www.w3.org/2000/svg">
<path d="M0 12.095V4.28083H2.74003V11.909C2.74003 13.4819 3.60264 14.3445 5.14179 14.3445C6.69786 14.3445 7.57738 13.4481 7.57738 11.909V4.28083H10.3174V12.095C10.3174 15.0718 8.28775 17 5.14179 17C2.01274 17 0 15.0887 0 12.095Z" fill="#7C828C"/>
<path d="M10.9954 4.83962L13.0961 4.27676L16.2955 16.2173L14.1949 16.7802L10.9954 4.83962Z" fill="#7C828C"/>
<path d="M20.1851 6.77386V4.23679H30.0289V6.77386H26.4771V16.753H23.737V6.77386H20.1851Z" fill="#7C828C"/>
<path d="M34.0049 16.753H31.2648V4.23679H34.0049V9.17562H38.8422V4.23679H41.5823V16.753H38.8422V11.7127H34.0049V16.753Z" fill="#7C828C"/>
<path d="M46.5155 4.23679V16.753H43.7755V4.23679H46.5155Z" fill="#7C828C"/>
<path d="M51.4274 16.753H48.7212V4.23679H51.4274L56.7045 12.2032V4.23679H59.4107V16.753H56.7045L51.4274 8.80351V16.753Z" fill="#7C828C"/>
<path d="M67.244 6.60472C64.9776 6.60472 63.8105 8.19462 63.8105 10.6133C63.8105 13.1334 65.2313 14.3851 67.2271 14.3851C69.2906 14.3851 70.2039 13.2688 70.3223 11.9664H67.0072V9.56463H72.8932V16.753H70.5422L70.39 15.6198C69.7134 16.4147 68.3603 16.939 66.8719 16.939C63.3708 16.939 60.9183 14.3681 60.9183 10.5287C60.9183 6.75695 63.4384 4.03383 67.3117 4.03383C70.3054 4.03383 72.6057 5.79286 72.8932 8.49907H70.0179C69.6965 7.17979 68.5464 6.60472 67.244 6.60472Z" fill="#7C828C"/>
<path d="M74.0566 7.87326C74.0566 5.60681 75.9678 4 78.6571 4C81.3464 4 83.0378 5.48841 83.0378 7.85634H80.3147C80.3147 6.97683 79.655 6.43558 78.6233 6.43558C77.507 6.43558 76.7966 6.943 76.7966 7.77177C76.7966 8.53289 77.1856 8.905 78.0651 9.09105L79.9426 9.48007C82.1752 9.93674 83.2408 11.0023 83.2408 12.9812C83.2408 15.3999 81.3464 16.9729 78.4711 16.9729C75.6803 16.9729 73.8705 15.4675 73.8705 13.1165H76.5937C76.5937 14.0299 77.2702 14.5373 78.488 14.5373C79.7227 14.5373 80.5007 14.0468 80.5007 13.2518C80.5007 12.5584 80.1794 12.2032 79.3506 12.034L77.4393 11.645C75.2067 11.1884 74.0566 9.91982 74.0566 7.87326Z" fill="#7C828C"/>
</svg>
